<svg width="136" height="181" viewBox="0 0 136 181" fill="none" xmlns="http://www.w3.org/2000/svg">
<g opacity="0.24">
<path d="M129.838 121.735C118.246 121.572 106.801 119.66 95.7687 115.991C91.9779 114.731 87.5357 112.99 83.6706 110.287C83.0492 109.166 82.399 108.067 81.7015 107.009C81.8831 107.022 82.0664 107.036 82.2504 107.05C83.9391 107.176 85.6859 107.308 87.4632 107.225C88.9289 107.159 90.4091 106.932 91.8874 106.573C101.136 108.119 110.342 110.229 119.305 112.934C122.367 113.858 125.486 114.926 127.949 116.769C129.113 118.125 130.191 119.553 131.149 121.065C130.721 121.302 130.28 121.518 129.838 121.735ZM107.139 125.066C102.938 123.629 98.7163 122.104 94.6307 120.333C92.3063 119.324 89.9261 118.18 87.8204 116.676C86.8664 115.646 86.0118 114.594 85.3575 113.608C85.1346 113.126 84.9014 112.651 84.6659 112.178C88.2248 114.363 92.0893 115.848 95.4463 116.964C105.888 120.435 116.698 122.357 127.652 122.719C121.679 125.122 114.646 125.914 107.139 125.066ZM91.2204 119.865C92.2176 120.365 93.2231 120.838 94.222 121.271C96.5879 122.296 98.9992 123.226 101.421 124.118C99.5319 123.707 97.6245 123.208 95.7046 122.597C94.433 122.192 92.8288 121.17 91.2204 119.865ZM110.711 142.739C110.651 142.704 110.581 142.663 110.498 142.61C108.853 141.561 107.321 140.188 105.841 138.862L89.0422 123.817C88.9991 123.778 88.9433 123.766 88.8978 123.731C88.8445 123.524 88.7929 123.318 88.739 123.112C90.7207 124.703 92.7461 125.954 94.4617 126.501C100.847 128.534 107.133 129.488 113.072 129.461C114.508 133.8 113.692 138.839 110.711 142.739ZM86.6063 145.125C86.5158 146.471 86.0574 150.944 83.6706 151.377C81.6661 151.783 79.6287 149.057 78.8485 147.867C71.0842 136.046 69.8743 120.101 75.7684 107.246C75.9314 106.893 76.1046 106.617 76.2286 106.413C77.7687 108.375 79.1415 110.501 80.355 112.756C80.6444 113.591 81.0903 114.495 81.6847 115.438C85.6049 123.96 87.3374 134.161 86.6063 145.125ZM92.2733 92.3449C93.2687 91.775 94.2616 91.2082 95.2318 90.6293C102.689 86.1817 109.307 80.6214 114.947 74.0687C115.155 76.9888 113.933 80.6172 111.291 84.9077C107.895 90.413 104.683 94.3368 101.182 97.2569C96.8917 100.831 91.9533 102.92 87.275 103.134C85.7434 103.204 84.1973 103.089 82.5578 102.965C81.6805 102.899 80.7871 102.832 79.8828 102.795C79.86 102.697 79.8307 102.603 79.7977 102.512C82.4092 97.9826 87.4219 95.117 92.2733 92.3449ZM125.451 114.116C123.55 113.208 121.522 112.533 119.601 111.953C111.27 109.439 102.734 107.428 94.1459 105.907C96.1031 105.238 98.0392 104.337 99.9035 103.198C99.9346 103.2 99.9592 103.217 99.9879 103.218C109.454 103.506 118.651 107.575 125.451 114.116ZM26.0356 115.805C25.8354 115.982 25.6784 116.181 25.5652 116.41C22.4228 114.616 20.7011 110.83 19.3343 106.929C17.0536 100.414 15.0407 93.7124 13.3515 87.0141C12.8026 84.8394 12.4412 82.5084 12.0595 80.0407C11.628 77.2566 11.1738 74.4156 10.4367 71.7879C18.0381 80.7142 21.6114 92.7039 24.8401 105.242L25.0259 105.948C25.588 108.083 27.0201 113.515 26.0356 115.805ZM15.2882 103.549C12.8109 96.7128 11.8036 89.2996 10.8293 82.1279C10.517 79.8453 10.2078 77.4088 10.1497 74.9855C10.4943 76.6987 10.7795 78.4581 11.048 80.1959C11.4153 82.5791 11.797 85.0432 12.3585 87.2657C14.0556 93.9934 16.0768 100.724 18.3683 107.268C19.6854 111.032 21.3393 114.699 24.2558 116.787C22.5966 116.706 19.357 114.783 15.2882 103.549ZM17.4083 135.874C18.4552 135.537 19.4853 135.294 20.3458 135.179C24.9354 134.565 29.7227 135.29 34.3555 135.992L38.9426 136.687C36.2173 136.816 33.4824 136.806 30.8044 136.781C28.1353 136.756 25.3752 136.73 22.6601 136.857C19.8071 136.989 16.9523 137.743 14.1922 138.471C13.3892 138.682 12.594 138.87 11.797 139.065C12.778 137.779 15.1354 136.604 17.4083 135.874ZM12.9164 139.862C13.4282 139.731 13.9399 139.596 14.4523 139.46C17.1626 138.747 19.9623 138.006 22.708 137.879C25.3956 137.755 28.1413 137.78 30.7966 137.805C33.9282 137.833 37.1383 137.864 40.3317 137.649C31.5888 140.764 22.0572 141.524 12.9164 139.862ZM26.8326 143.694C20.5693 144.357 13.2322 143.711 11.7994 141.479C11.5699 141.126 11.465 140.841 11.4051 140.585C20.6083 142.503 30.2429 141.991 39.1758 139.119C39.4298 139.037 39.6797 138.937 39.9338 138.852C36.1843 141.472 31.6529 143.179 26.8326 143.694ZM40.9657 69.5965C40.1669 67.9456 39.3244 66.3109 38.48 64.675C36.0273 59.9176 33.7071 55.4233 32.4313 50.5167C29.3326 38.6116 32.8484 24.3592 42.0803 11.4144C42.9024 10.2597 43.5814 9.7551 43.9673 9.63165C44.0728 9.59749 44.1554 9.5921 44.213 9.61128C44.5228 9.70476 45.0184 10.3903 45.2826 10.7588L51.7814 19.7828C55.4517 24.8805 59.2461 30.1497 60.8629 36.172C61.7198 39.3696 62.0188 43.0358 61.7755 47.3809C60.9947 61.3486 55.1647 74.7542 45.596 84.885C45.33 79.7273 43.5316 74.9034 40.9657 69.5965ZM69.4284 6.33763C65.2769 8.79213 62.8098 13.3889 60.4788 18.3099C59.8657 19.606 59.17 21.0928 58.7901 22.67C57.5743 20.8345 56.317 19.0715 55.1054 17.3906L53.053 14.5406C56.4818 9.51961 63.3527 7.47499 69.4284 6.33763ZM70.229 7.03694C68.526 11.8602 68.5589 16.4103 68.5943 21.2078C68.6063 22.6933 68.6189 24.219 68.5799 25.8052C68.4559 31.0162 67.9771 36.7539 65.842 41.6994C65.6898 39.3372 65.3632 37.141 64.8185 35.1108C63.7327 31.0623 61.7797 27.3494 59.5955 23.9104C59.8346 22.0695 60.6855 20.27 61.4058 18.7479C63.7159 13.8665 66.1434 9.30208 70.229 7.03694ZM71.2405 7.30661L76.9759 23.7234C78.0929 26.9192 79.2464 30.2264 79.0792 33.4863C78.7802 39.2288 74.5376 44.0874 69.806 48.9604C68.239 50.3249 66.7277 51.7571 65.2787 53.2558C65.5555 51.3862 65.7599 49.5034 65.8648 47.6086C65.9373 46.2938 65.9558 45.042 65.9373 43.828C68.8562 38.3599 69.4632 31.7587 69.6034 25.8286C69.6406 24.2322 69.6304 22.6963 69.6202 21.2C69.583 16.2743 69.5729 11.9645 71.2405 7.30661ZM77.2234 11.4905C78.8689 8.54524 81.4205 6.13928 84.292 4.64177L86.7243 12.6315C83.9618 14.1937 81.2617 15.4347 78.4189 15.4371L77.0933 11.6421C77.1329 11.5864 77.1904 11.551 77.2234 11.4905ZM90.8837 14.9535C92.3003 14.1176 93.7187 13.2792 95.1658 12.5775C95.3516 12.4876 95.9215 12.2162 96.1462 12.2282C96.3529 12.2455 96.9348 12.8825 97.3063 14.6641C98.0206 18.0858 98.6708 22.0929 98.0704 25.8699C97.5502 29.1525 94.1993 34.1346 91.2558 36.0462C87.7958 37.3795 84.4472 38.9777 81.2389 40.8198C82.3205 38.6068 83.0348 36.2637 83.169 33.7008C83.38 29.6349 82.0317 25.7764 80.8428 22.3709L79.8307 19.4754C83.8917 19.0715 87.4386 16.9867 90.8837 14.9535ZM55.5075 78.892C59.0046 73.5485 61.6904 67.6921 63.4642 61.5535C63.4726 61.5445 63.4828 61.5409 63.4888 61.5319C66.1889 58.0599 69.2277 54.8864 72.5229 52.025C72.5499 51.9998 72.5805 51.9842 72.6074 51.9579C72.6176 51.9465 72.6284 51.9351 72.6386 51.9231C79.9961 45.5664 88.6749 40.8138 98.0476 38.071C93.5845 42.5384 89.5072 47.074 85.2604 51.8242C83.4645 53.8347 81.6518 55.8649 79.7815 57.9137C72.8962 65.466 64.1431 74.3665 55.5075 78.892ZM100.029 37.5299C100.046 37.5251 100.062 37.5209 100.079 37.5167C98.539 40.7652 96.8833 43.982 95.1407 47.1088C91.3301 53.9467 87.7808 59.0583 83.972 63.1966C76.6247 71.1803 66.9961 76.8701 56.5112 79.5235C65.1175 74.8405 73.737 66.0652 80.539 58.6028C82.4092 56.5516 84.2261 54.5202 86.0262 52.5068C90.6608 47.3185 95.073 42.3844 100.029 37.5299ZM101.334 37.1896C101.351 37.186 101.367 37.1806 101.384 37.177C101.396 37.1728 101.411 37.1704 101.423 37.1662C97.8289 58.2715 81.6931 76.6981 61.2674 83.1388C57.3657 84.36 54.0915 84.8814 51.1887 84.7316C52.1655 83.5564 53.0961 82.3454 53.9842 81.1049C56.1001 80.6837 58.1957 80.1767 60.2433 79.5182C69.5663 76.5214 78.0659 71.127 84.7259 63.8911C88.5904 59.6911 92.1822 54.5172 96.0347 47.6068C97.9236 44.2181 99.6823 40.7167 101.334 37.1896ZM104.767 99.5574C108.242 96.4539 111.45 92.454 114.778 87.056C119.345 79.6464 120.269 73.5084 117.53 68.8163C117.187 68.2303 116.576 67.8515 115.899 67.8066C115.219 67.7545 114.565 68.0523 114.148 68.588C108.325 76.036 101.254 82.2669 93.132 87.1111C92.1846 87.6762 91.2145 88.2317 90.2401 88.789C84.796 91.8997 79.1685 95.117 76.0471 100.822C76.0303 100.853 76.0159 100.881 76.0015 100.91C68.0843 99.4789 59.1658 100.354 50.1239 103.448C45.9082 104.891 41.9011 106.711 38.0695 108.71C41.674 103.238 44.1141 97.2581 45.1939 91.0164C46.1126 90.1799 46.9982 89.308 47.8629 88.4205C52.0768 89.2798 56.7383 88.8489 62.4898 87.0482C62.6301 87.0051 62.7703 86.9601 62.9105 86.9152C84.6036 79.9412 101.683 60.2466 105.478 37.7684C105.587 37.1111 105.88 35.3703 104.687 34.0753C103.26 32.5275 101.142 33.0254 100.442 33.1896C99.9945 33.2963 99.5505 33.4227 99.1065 33.5372C100.63 31.2085 101.772 28.6738 102.116 26.5105C102.821 22.0809 102.106 17.6124 101.318 13.8287C100.339 9.14087 97.8594 8.25522 96.4722 8.14615C95.2977 8.04727 94.2922 8.45056 93.3759 8.8922C92.362 9.38538 91.3607 9.94566 90.3635 10.5209L88.1547 3.25992C87.3973 0.774277 85.8674 0.333237 85.0249 0.290695C84.2549 0.250549 83.6358 0.525589 83.3446 0.65683C80.2399 2.03268 77.5062 4.18216 75.4173 6.84579L74.5645 4.40569C74.4513 4.0773 74.2571 3.52359 73.8047 3.02023C72.5559 1.63179 70.6833 1.95598 70.0702 2.06084C63.3198 3.22217 55.2576 5.30634 50.547 11.0602L48.606 8.36487C47.9846 7.50195 47.0432 6.19501 45.4186 5.69644C43.8103 5.20027 41.3498 5.37825 38.7443 9.03722C28.8083 22.9708 25.0612 38.4653 28.4673 51.5474C29.8588 56.8962 32.3923 61.8046 34.8402 66.553C35.6684 68.1565 36.4941 69.7601 37.2768 71.3787C40.3772 77.7876 42.2415 83.3455 41.2713 89.6268C41.2671 89.6483 41.2629 89.6687 41.2611 89.6903C39.9913 97.7836 36.2257 105.444 30.3795 111.996C30.1769 109.7 29.6029 107.238 28.9857 104.904L28.8059 104.219C25.057 89.6561 20.8354 75.7657 10.5069 65.8884C10.0011 65.406 9.28501 65.2143 8.60547 65.3797C7.92413 65.5319 7.37942 66.0454 7.15231 66.7064C5.32342 72.057 6.09345 77.7007 6.77059 82.6804C7.77372 90.0636 8.8122 97.6979 11.4357 104.943C13.575 110.851 16.8738 118.393 21.8367 120.377C18.647 123.335 15.3979 126.399 12.5509 129.832C1.81127 142.783 -2.30732 161.038 1.24978 177.494C2.94683 178.709 4.67684 179.877 6.44221 181C2.64781 169.018 3.51251 155.546 8.60127 144.007C12.2698 148.923 23.7627 148.137 27.264 147.766C29.5352 147.527 31.7524 147.054 33.8809 146.37C39.4424 144.582 44.3742 141.347 47.9373 137.046C48.4101 136.478 48.5383 135.699 48.2758 135.011C48.014 134.32 47.3985 133.824 46.6675 133.715L34.9685 131.942C30.0529 131.199 24.9725 130.427 19.8053 131.118C18.9915 131.226 17.6294 131.514 16.0972 132.003C18.9154 128.683 22.1915 125.629 25.377 122.677C27.1298 121.054 28.8682 119.414 30.5629 117.735C36.9813 113.779 43.9158 109.902 51.4512 107.325C58.7961 104.791 66.0284 103.867 72.5685 104.556C72.3803 104.86 72.2071 105.187 72.0441 105.54C65.5777 119.646 66.9032 137.144 75.4232 150.115C78.0803 154.16 81.2988 156.035 84.482 155.394C84.7235 155.344 84.9572 155.283 85.1861 155.21C88.3902 154.179 90.3372 150.733 90.6919 145.399C91.0407 140.194 90.8531 135.145 90.176 130.331L103.108 141.912C104.712 143.349 106.369 144.834 108.293 146.063C108.824 146.402 110.236 147.303 111.863 146.818C111.892 146.809 111.919 146.8 111.945 146.792C112.897 146.486 113.51 145.835 113.987 145.232C117.48 140.81 118.679 134.71 117.272 129.265C120.542 128.972 123.69 128.39 126.634 127.444C129.662 126.47 132.488 125.152 135.061 123.495C135.969 122.911 136.267 121.719 135.74 120.777C129.408 109.429 117.583 101.456 104.767 99.5574Z" fill="#F7C4AE"/>
</g>
</svg>
