<svg width="236" height="144" viewBox="0 0 236 144" fill="none" xmlns="http://www.w3.org/2000/svg">
<path d="M-0.11792 113.207L2.06963 110.59C3.26876 111.635 4.82272 112.353 6.20943 112.353C7.79977 112.353 8.57794 111.726 8.57794 110.725C8.57794 109.663 7.62023 109.321 6.14754 108.716L3.95857 107.782C2.21279 107.07 0.558188 105.635 0.558188 103.183C0.558188 100.389 3.05143 98.1569 6.56001 98.1569C8.50092 98.1569 10.5302 98.9221 11.9802 100.368L10.0572 102.771C8.94694 101.919 7.89238 101.45 6.56001 101.45C5.24606 101.45 4.41026 101.997 4.41026 102.962C4.41026 103.996 5.51253 104.372 6.98334 104.958L9.13026 105.829C11.1879 106.662 12.4735 108.033 12.4735 110.418C12.4735 113.218 10.1404 115.645 6.12391 115.645C3.93211 115.645 1.60141 114.814 -0.11792 113.207Z" fill="#649C9F"/>
<path d="M23.3261 108.353H31.4342V111.318H23.3261V108.353ZM25.1281 98.4673H29.6875L34.9796 115.335H30.948L28.7435 106.792C28.2752 105.106 27.825 103.112 27.3747 101.352H27.2712C26.863 103.133 26.4128 105.106 25.9445 106.792L23.7315 115.335H19.8359L25.1281 98.4673Z" fill="#649C9F"/>
<path d="M43.2197 98.4678H47.0283V112.138H53.6812V115.335H43.2197V98.4678Z" fill="#649C9F"/>
<path d="M62.9199 98.4678H66.7299V112.138H73.3814V115.335H62.9199V98.4678Z" fill="#649C9F"/>
<path d="M84.1694 109.319L79.0931 98.4678H83.1668L84.673 102.343C85.1228 103.606 85.5632 104.775 86.0442 106.083H86.1481C86.6277 104.775 87.1086 103.606 87.5717 102.343L89.076 98.4678H93.0561L87.9794 109.319V115.335H84.1694V109.319Z" fill="#649C9F"/>
<path d="M112.94 98.4678H117.096L119.831 105.963C120.169 106.958 120.463 108.039 120.801 109.077H120.904C121.242 108.039 121.528 106.958 121.866 105.963L124.515 98.4678H128.671V115.335H125.202V109.145C125.202 107.502 125.509 105.046 125.689 103.414H125.585L124.202 107.406L121.821 113.868H119.706L117.318 107.406L115.975 103.414H115.871C116.05 105.046 116.357 107.502 116.357 109.145V115.335H112.94V98.4678Z" fill="#649C9F"/>
<path d="M149.446 106.829C149.446 103.446 147.995 101.45 145.697 101.45C143.397 101.45 141.947 103.446 141.947 106.829C141.947 110.21 143.397 112.353 145.697 112.353C147.995 112.353 149.446 110.21 149.446 106.829ZM138.043 106.829C138.043 101.316 141.152 98.1569 145.697 98.1569C150.242 98.1569 153.35 101.339 153.35 106.829C153.35 112.339 150.242 115.645 145.697 115.645C141.152 115.645 138.043 112.339 138.043 106.829Z" fill="#649C9F"/>
<path d="M162.562 107.518V98.4676H166.372V107.908C166.372 111.211 167.411 112.354 169.297 112.354C171.192 112.354 172.283 111.211 172.283 107.908V98.4676H175.955V107.518C175.955 113.182 173.657 115.645 169.297 115.645C164.937 115.645 162.562 113.182 162.562 107.518Z" fill="#649C9F"/>
<path d="M185.831 98.4678H189.735L194.132 106.857L195.798 110.563H195.902C195.723 108.779 195.416 106.415 195.416 104.426V98.4678H199.046V115.335H195.141L190.744 106.925L189.077 103.24H188.974C189.154 105.101 189.461 107.361 189.461 109.349V115.335H185.831V98.4678Z" fill="#649C9F"/>
<path d="M209.006 98.4673H212.814V115.334H209.006V98.4673Z" fill="#649C9F"/>
<path d="M228.105 108.259L230.74 105.82L236.118 115.335H231.855L228.105 108.259ZM228.492 106.238C230.496 106.238 231.572 105.379 231.572 103.72C231.572 102.052 230.496 101.495 228.492 101.495H226.543V106.238H228.492ZM222.733 98.4678H228.802C232.377 98.4678 235.306 99.7097 235.306 103.72C235.306 107.597 232.377 109.266 228.802 109.266H226.543V115.335H222.733V98.4678Z" fill="#649C9F"/>
<path d="M80.2751 37.6358C80.2751 58.4901 97.1651 75.3955 118 75.3955C122.319 75.3955 126.467 74.6696 130.331 73.3322C130.331 73.3322 138.029 80.1567 149.12 77.5534C149.12 77.5534 146.351 76.3446 145.713 68.0399C145.397 63.9304 148.571 59.766 148.571 59.766C153.072 53.5472 155.725 45.9018 155.725 37.6358C155.725 16.7816 138.835 -0.123848 118 -0.123848C97.1651 -0.123848 80.2751 16.7816 80.2751 37.6358Z" fill="#649C9F"/>
<path d="M138.319 50.0212C134.51 49.9678 130.75 49.3388 127.127 48.1325C125.881 47.7182 124.422 47.1455 123.152 46.2569C122.948 45.888 122.734 45.5267 122.505 45.1792C122.565 45.1834 122.625 45.1881 122.686 45.1929C123.24 45.234 123.814 45.2775 124.398 45.2501C124.879 45.2283 125.366 45.1541 125.851 45.0359C128.89 45.5442 131.914 46.238 134.859 47.1275C135.864 47.4311 136.889 47.7825 137.698 48.3883C138.08 48.8343 138.434 49.3038 138.749 49.8009C138.609 49.8789 138.464 49.9498 138.319 50.0212ZM130.862 51.1165C129.482 50.6441 128.095 50.1423 126.753 49.5602C125.989 49.2282 125.207 48.8522 124.515 48.358C124.202 48.019 123.921 47.6728 123.706 47.3493C123.633 47.1904 123.557 47.0344 123.479 46.8788C124.648 47.5976 125.918 48.0852 127.021 48.4526C130.451 49.5937 134.002 50.2255 137.6 50.3447C135.638 51.1345 133.328 51.3955 130.862 51.1165ZM125.633 49.4065C125.96 49.5706 126.29 49.7262 126.619 49.8685C127.396 50.2057 128.188 50.5112 128.983 50.8049C128.363 50.6696 127.736 50.5055 127.105 50.3045C126.688 50.1716 126.161 49.8354 125.633 49.4065ZM132.035 56.9276C132.015 56.9157 131.993 56.9025 131.965 56.885C131.425 56.5403 130.921 56.0886 130.435 55.6526L124.917 50.7055C124.903 50.6928 124.884 50.689 124.87 50.6772C124.852 50.6095 124.835 50.5414 124.817 50.4738C125.468 50.9969 126.133 51.4083 126.697 51.588C128.795 52.2567 130.86 52.5707 132.811 52.5617C133.282 53.9885 133.015 55.6451 132.035 56.9276ZM124.116 57.7121C124.087 58.1548 123.936 59.6255 123.152 59.7678C122.494 59.9012 121.824 59.005 121.568 58.6135C119.018 54.7267 118.62 49.4836 120.556 45.2572C120.61 45.1413 120.667 45.0501 120.708 44.9834C121.213 45.6284 121.664 46.3274 122.063 47.0689C122.158 47.3432 122.305 47.6406 122.5 47.9504C123.788 50.7528 124.357 54.1072 124.116 57.7121ZM125.978 40.3574C126.305 40.1701 126.631 39.9833 126.95 39.7932C129.4 38.331 131.574 36.5027 133.427 34.3482C133.495 35.3082 133.094 36.5013 132.226 37.912C131.11 39.7223 130.055 41.0124 128.904 41.9724C127.496 43.148 125.873 43.8347 124.336 43.9051C123.833 43.9283 123.325 43.89 122.787 43.8493C122.499 43.8281 122.205 43.8058 121.908 43.7935C121.901 43.7614 121.891 43.7306 121.88 43.7004C122.738 42.2112 124.384 41.2687 125.978 40.3574ZM136.877 47.5158C136.253 47.2174 135.587 46.9956 134.955 46.8045C132.219 45.9779 129.415 45.3168 126.593 44.8169C127.236 44.597 127.873 44.3005 128.485 43.926C128.495 43.9269 128.503 43.9321 128.513 43.9326C131.622 44.0272 134.644 45.365 136.877 47.5158ZM104.219 48.0715C104.153 48.1296 104.102 48.1949 104.064 48.2705C103.032 47.6804 102.466 46.4357 102.018 45.1527C101.268 43.0104 100.607 40.8071 100.052 38.6043C99.8715 37.8898 99.7529 37.1232 99.6273 36.3117C99.4855 35.3961 99.3362 34.4622 99.0943 33.5982C101.591 36.533 102.765 40.4756 103.826 44.5984L103.887 44.8302C104.071 45.5324 104.542 47.3181 104.219 48.0715ZM100.688 44.0413C99.8744 41.7936 99.5432 39.3558 99.2233 36.9979C99.1208 36.2474 99.0192 35.4463 99.0003 34.6494C99.1132 35.2127 99.2068 35.791 99.2951 36.3628C99.4156 37.1464 99.5413 37.9565 99.7255 38.6876C100.283 40.8994 100.947 43.1126 101.7 45.2643C102.133 46.5019 102.676 47.7078 103.634 48.3944C103.089 48.3675 102.025 47.7352 100.688 44.0413ZM101.384 54.6699C101.728 54.5593 102.067 54.4793 102.35 54.4415C103.857 54.2396 105.43 54.4784 106.952 54.7092L108.459 54.9376C107.563 54.9797 106.665 54.9764 105.785 54.9683C104.909 54.9603 104.002 54.9518 103.11 54.9934C102.172 55.0369 101.235 55.2847 100.328 55.524C100.064 55.5935 99.803 55.6555 99.5413 55.7198C99.8635 55.2965 100.638 54.9102 101.384 54.6699ZM99.9089 55.9813C100.077 55.9383 100.245 55.8938 100.413 55.8493C101.304 55.6148 102.223 55.3712 103.125 55.3296C104.009 55.289 104.91 55.297 105.783 55.305C106.811 55.3145 107.866 55.3249 108.915 55.2535C106.043 56.2783 102.912 56.528 99.9089 55.9813ZM104.48 57.2416C102.423 57.4596 100.013 57.2473 99.5417 56.5133C99.4666 56.397 99.4321 56.3038 99.4123 56.2192C102.436 56.85 105.601 56.6817 108.535 55.7373C108.619 55.7103 108.701 55.6772 108.784 55.6493C107.553 56.5109 106.064 57.0723 104.48 57.2416ZM109.123 32.8774C108.861 32.3345 108.584 31.7973 108.307 31.2592C107.501 29.6948 106.739 28.2169 106.32 26.6039C105.302 22.6891 106.457 18.0031 109.49 13.747C109.759 13.3672 109.982 13.2012 110.11 13.1606C110.144 13.1492 110.171 13.1473 110.19 13.1539C110.292 13.1847 110.454 13.4103 110.541 13.5313L112.676 16.4983C113.882 18.1748 115.129 19.907 115.66 21.8871C115.941 22.9388 116.04 24.1443 115.959 25.5729C115.703 30.1658 113.788 34.5733 110.644 37.9044C110.557 36.2086 109.966 34.6225 109.123 32.8774ZM118.473 12.0776C117.11 12.8844 116.299 14.3963 115.534 16.0141C115.332 16.4402 115.104 16.9291 114.979 17.4479C114.579 16.844 114.166 16.2647 113.768 15.7119L113.094 14.7746C114.221 13.1237 116.478 12.4512 118.473 12.0776ZM118.736 12.3074C118.177 13.8936 118.188 15.3894 118.2 16.967C118.203 17.4555 118.208 17.9572 118.195 18.4784C118.154 20.1917 117.997 22.0786 117.295 23.7045C117.245 22.928 117.138 22.2058 116.959 21.5381C116.602 20.2069 115.961 18.9863 115.243 17.8556C115.322 17.2503 115.602 16.6586 115.838 16.1583C116.597 14.5533 117.395 13.0523 118.736 12.3074ZM119.069 12.3959L120.953 17.7941C121.32 18.8449 121.699 19.9321 121.644 21.0042C121.546 22.8925 120.152 24.49 118.598 26.0922C118.083 26.541 117.586 27.012 117.11 27.5048C117.201 26.89 117.268 26.2705 117.303 25.6477C117.327 25.2154 117.333 24.804 117.327 24.4049C118.286 22.6064 118.485 20.4362 118.531 18.4864C118.543 17.9615 118.54 17.4564 118.537 16.9641C118.524 15.3444 118.521 13.9276 119.069 12.3959ZM121.035 13.7716C121.575 12.8035 122.413 12.0123 123.356 11.52L124.155 14.147C123.248 14.6606 122.361 15.0687 121.427 15.0697L120.992 13.8217C121.004 13.8032 121.024 13.7919 121.035 13.7716ZM125.522 14.9103C125.987 14.6356 126.453 14.3598 126.929 14.1291C126.99 14.0998 127.177 14.0104 127.25 14.0146C127.318 14.0203 127.51 14.2293 127.632 14.8153C127.866 15.9403 128.08 17.2578 127.883 18.4997C127.711 19.5793 126.611 21.2175 125.644 21.846C124.507 22.2843 123.407 22.8097 122.353 23.4155C122.709 22.6877 122.943 21.9174 122.987 21.0746C123.057 19.7377 122.614 18.4689 122.223 17.3496L121.891 16.3971C123.225 16.2642 124.39 15.579 125.522 14.9103ZM113.901 35.9338C115.049 34.177 115.932 32.2513 116.514 30.233C116.517 30.2301 116.521 30.2287 116.522 30.2259C117.409 29.0843 118.408 28.0406 119.49 27.0999C119.499 27.0914 119.509 27.0862 119.518 27.0777C119.521 27.0739 119.524 27.0702 119.528 27.0664C121.945 24.9761 124.796 23.4136 127.875 22.5118C126.409 23.9807 125.069 25.4717 123.675 27.0337C123.085 27.6949 122.489 28.3626 121.875 29.036C119.613 31.5193 116.737 34.4461 113.901 35.9338ZM128.526 22.3335C128.532 22.3321 128.537 22.3307 128.543 22.3293C128.037 23.3976 127.493 24.4555 126.92 25.4831C125.669 27.7318 124.502 29.4125 123.251 30.773C120.837 33.3986 117.675 35.2694 114.23 36.1414C117.057 34.6017 119.889 31.7165 122.124 29.263C122.738 28.5882 123.335 27.9204 123.926 27.2584C125.448 25.5526 126.898 23.9301 128.526 22.3335ZM128.955 22.2219C128.96 22.2205 128.965 22.2191 128.971 22.2177C128.975 22.2162 128.98 22.2153 128.984 22.2144C127.803 29.1538 122.502 35.2127 115.792 37.3303C114.511 37.7318 113.435 37.9035 112.482 37.8543C112.803 37.4679 113.108 37.0693 113.4 36.6616C114.095 36.5231 114.783 36.3561 115.456 36.14C118.519 35.1545 121.311 33.3806 123.499 31.0014C124.768 29.6205 125.948 27.9195 127.214 25.6472C127.834 24.533 128.412 23.3815 128.955 22.2219ZM130.083 42.729C131.224 41.7085 132.278 40.3933 133.371 38.6185C134.871 36.1821 135.175 34.1637 134.275 32.6211C134.163 32.4282 133.962 32.3038 133.739 32.2892C133.516 32.2717 133.301 32.37 133.164 32.5459C131.251 34.9951 128.929 37.0438 126.261 38.6365C125.949 38.8224 125.63 39.0049 125.31 39.1884C123.522 40.2113 121.673 41.2687 120.648 43.1447C120.642 43.1546 120.638 43.1641 120.633 43.174C118.032 42.703 115.102 42.991 112.132 44.0082C110.747 44.483 109.431 45.0813 108.172 45.7381C109.356 43.9392 110.158 41.9729 110.512 39.9204C110.814 39.6457 111.105 39.3591 111.389 39.0668C112.773 39.3496 114.305 39.2078 116.194 38.6157C116.24 38.6015 116.286 38.5868 116.332 38.5722C123.459 36.2791 129.069 29.8031 130.316 22.412C130.352 22.1959 130.448 21.6237 130.056 21.1981C129.588 20.6888 128.892 20.8529 128.662 20.9068C128.515 20.9418 128.369 20.9834 128.223 21.0212C128.724 20.2551 129.099 19.4218 129.212 18.7106C129.443 17.254 129.208 15.7847 128.949 14.5405C128.628 12.9993 127.814 12.708 127.358 12.672C126.972 12.6394 126.641 12.7723 126.34 12.9175C126.007 13.0797 125.678 13.2637 125.351 13.4528L124.625 11.0656C124.376 10.2484 123.874 10.1032 123.597 10.089C123.344 10.0763 123.141 10.1661 123.045 10.2096C122.025 10.6617 121.127 11.3687 120.441 12.2445L120.161 11.442C120.124 11.3342 120.06 11.1521 119.911 10.9866C119.501 10.5303 118.886 10.6367 118.684 10.6712C116.467 11.0533 113.818 11.7385 112.271 13.6302L111.633 12.7439C111.429 12.4602 111.12 12.0308 110.586 11.8667C110.058 11.7035 109.25 11.7622 108.394 12.9652C105.13 17.5468 103.898 22.6414 105.018 26.9429C105.475 28.7017 106.307 30.3157 107.111 31.8768C107.383 32.4041 107.655 32.9314 107.912 33.4634C108.93 35.5706 109.543 37.3984 109.224 39.4636C109.222 39.4707 109.221 39.4773 109.22 39.4844C108.803 42.1459 107.566 44.6646 105.646 46.8192C105.579 46.064 105.39 45.2544 105.188 44.4868L105.129 44.2617C103.897 39.4735 102.51 34.9062 99.1175 31.6583C98.9512 31.4999 98.7159 31.4365 98.4929 31.4909C98.2689 31.541 98.0898 31.7098 98.0152 31.9274C97.4147 33.6866 97.6674 35.5423 97.89 37.1795C98.2193 39.6074 98.5604 42.1176 99.4227 44.4996C100.125 46.4428 101.209 48.9222 102.839 49.5748C101.792 50.5471 100.724 51.5549 99.7888 52.6837C96.2609 56.9418 94.9077 62.9444 96.0766 68.3554C96.6337 68.7545 97.2021 69.139 97.7823 69.5083C96.5354 65.5685 96.8198 61.1383 98.4914 57.3442C99.6967 58.9606 103.472 58.7024 104.622 58.5804C105.368 58.5019 106.097 58.3463 106.796 58.1212C108.623 57.5334 110.243 56.4698 111.414 55.0553C111.569 54.869 111.611 54.6127 111.525 54.3862C111.439 54.1592 111.236 53.9965 110.996 53.9601L107.153 53.3775C105.538 53.133 103.87 52.879 102.172 53.1065C101.905 53.142 101.457 53.2365 100.954 53.3973C101.88 52.3059 102.956 51.3014 104.002 50.331C104.578 49.7971 105.149 49.258 105.706 48.7061C107.814 47.4051 110.093 46.1302 112.568 45.2827C114.981 44.4495 117.356 44.1459 119.505 44.3724C119.443 44.4726 119.387 44.58 119.333 44.6958C117.208 49.3341 117.644 55.0875 120.443 59.3526C121.316 60.6829 122.373 61.2996 123.419 61.0887C123.498 61.0721 123.575 61.0523 123.65 61.0281C124.703 60.6891 125.342 59.556 125.459 57.8024C125.574 56.0905 125.512 54.4306 125.289 52.8473L129.537 56.6557C130.064 57.1281 130.609 57.6166 131.241 58.0205C131.415 58.1321 131.879 58.4281 132.414 58.2687C132.423 58.2659 132.432 58.2626 132.44 58.2602C132.753 58.1595 132.955 57.9453 133.111 57.7471C134.259 56.2929 134.653 54.2873 134.191 52.4974C135.264 52.4009 136.299 52.2094 137.266 51.8982C138.261 51.5781 139.189 51.1444 140.035 50.5996C140.333 50.4076 140.43 50.0156 140.258 49.7058C138.177 45.9751 134.293 43.3533 130.083 42.729Z" fill="white"/>
<path d="M66.8955 138.003C66.784 137.917 66.7216 137.805 66.7098 137.668C66.6971 137.532 66.7027 137.277 66.7769 137.165C67.1369 136.556 66.9909 137.633 66.8955 138.003ZM54.6193 142.042C54.2224 143.89 53.6337 145.677 52.8531 147.401C52.6174 147.873 52.4468 148.189 52.3415 148.35C52.2361 148.512 52.1397 148.586 52.0537 148.574C51.8921 148.549 51.818 148.276 51.8302 147.755C51.8425 147.11 52.0906 146.275 52.5739 145.252C53.0577 144.229 53.6899 143.14 54.4704 141.986C54.5077 141.924 54.5479 141.899 54.5914 141.911C54.6348 141.924 54.6438 141.967 54.6193 142.042ZM92.1931 135.816C92.0566 135.823 91.9389 135.876 91.8402 135.975C91.2448 136.608 90.504 137.244 89.6176 137.883C88.7313 138.521 87.7334 139.089 86.6245 139.585C85.5152 140.082 84.5263 140.329 83.6588 140.329H83.622C82.8405 140.354 82.1715 140.088 81.614 139.529C81.4155 139.306 81.3069 138.952 81.2884 138.469C81.2695 137.985 81.3007 137.554 81.3815 137.175C81.4618 136.797 81.5516 136.465 81.6508 136.18C81.6881 136.068 81.6848 135.956 81.6414 135.845C81.5984 135.733 81.5204 135.649 81.4094 135.594C81.2979 135.538 81.1831 135.522 81.0654 135.547C80.9473 135.572 80.8514 135.64 80.7772 135.752C80.0335 136.843 79.237 137.78 78.3879 138.562C77.5389 139.343 76.9592 139.641 76.6497 139.455C76.5873 139.368 76.5722 139.192 76.6029 138.925C76.6341 138.658 76.7451 138.276 76.9374 137.78C77.1297 137.284 77.3745 136.781 77.6721 136.272C77.7217 136.148 77.7279 136.025 77.6906 135.901C77.6537 135.776 77.5795 135.684 77.4675 135.621C77.356 135.559 77.2379 135.544 77.1141 135.575C76.9904 135.606 76.8916 135.677 76.817 135.789C76.8028 135.815 76.7919 135.84 76.7777 135.865C76.7631 135.878 76.7447 135.885 76.731 135.901C75.6159 137.017 74.3077 137.817 72.808 138.301C71.3079 138.785 69.7776 138.896 68.2156 138.636C68.1041 138.611 68.0115 138.547 67.9368 138.441C67.8622 138.335 67.8376 138.227 67.8622 138.115C67.9491 137.668 67.9553 137.24 67.8811 136.831C67.8064 136.422 67.6515 136.148 67.4162 136.012C66.9328 135.727 66.4495 135.993 65.9657 136.812C65.7431 137.16 65.6746 137.538 65.7616 137.947C65.848 138.357 66.0654 138.673 66.4122 138.896C66.561 139.008 66.5114 139.201 66.2633 139.473C66.0895 139.685 65.8669 139.806 65.5938 139.836C65.3212 139.868 64.4911 139.585 64.2927 139.055C64.1911 138.784 64.175 138.518 64.2738 138.245C64.3975 137.799 64.6394 137.38 64.9995 136.989C65.3586 136.599 65.6373 136.403 65.8357 136.403C65.9718 136.403 66.0895 136.357 66.1892 136.263C66.2879 136.17 66.338 136.059 66.338 135.929C66.338 135.798 66.2912 135.684 66.1986 135.584C66.1051 135.485 65.9907 135.435 65.8542 135.435H65.8357C65.4346 135.435 65.0089 135.651 64.561 136.059C64.5568 136.063 64.5516 136.064 64.5478 136.068C64.5119 136.104 64.4675 136.145 64.4164 136.191C64.4136 136.193 64.4112 136.195 64.4084 136.198C64.3545 136.245 64.2927 136.298 64.2223 136.357C64.0796 136.475 63.807 136.633 63.4039 136.831C63.0014 137.029 62.3768 137.24 61.952 137.211C57.8878 136.928 56.6419 137.855 56.4378 137.775C56.2332 137.694 56.305 137.017 56.2923 136.794C56.2923 136.409 56.2304 136.031 56.1066 135.659C56.0074 135.423 55.8368 135.318 55.5954 135.342C55.3535 135.367 55.208 135.503 55.1583 135.752C55.1461 135.851 55.1215 135.978 55.0842 136.133C55.0468 136.288 54.9476 136.567 54.7865 136.97C54.6254 137.374 54.4425 137.74 54.2384 138.068C54.0334 138.397 53.7362 138.726 53.3455 139.055C52.9552 139.384 52.5182 139.61 52.0348 139.734C51.7995 139.821 51.5883 139.778 51.4027 139.603C51.328 139.505 51.2661 139.371 51.2165 139.204C51.1674 139.036 51.1797 138.692 51.2538 138.171C51.328 137.649 51.5075 137.029 51.7934 136.31C51.8425 136.186 51.8425 136.062 51.7934 135.938C51.7433 135.814 51.6569 135.727 51.5326 135.677C51.4088 135.628 51.2817 135.631 51.1513 135.686C51.0214 135.742 50.9316 135.832 50.882 135.956C50.0519 138.028 49.9838 139.455 50.6774 140.236C50.8759 140.46 51.1206 140.612 51.4121 140.693C51.7032 140.773 51.9914 140.77 52.2763 140.683C52.9335 140.497 53.5222 140.19 54.0428 139.762C54.5635 139.334 54.9722 138.822 55.2698 138.227C55.2576 138.587 55.2141 138.946 55.1399 139.306C55.1276 139.393 55.096 139.473 55.0468 139.548C53.8567 141.049 52.8654 142.541 52.0722 144.024C51.2784 145.506 50.8697 146.743 50.8451 147.737C50.7955 148.332 50.9751 148.846 51.3842 149.281C51.5576 149.467 51.7745 149.56 52.0348 149.56C52.2333 149.56 52.4189 149.498 52.5923 149.374C53.1877 148.989 53.8227 147.832 54.4983 145.904C55.1739 143.974 55.679 142.004 56.014 139.995C56.0258 139.908 56.0631 139.833 56.1255 139.771C57.4196 137.547 61.2027 138.287 62.3258 138.143C62.7363 138.09 63.0694 138.003 63.3789 137.898C63.369 137.934 63.3534 137.967 63.3444 138.003C63.1838 138.5 63.2022 138.984 63.4002 139.455C63.5986 139.926 63.9331 140.274 64.4042 140.497C64.751 140.696 65.1294 140.795 65.5381 140.795C65.9473 140.782 66.3163 140.664 66.6446 140.441C66.973 140.218 67.2177 139.92 67.3793 139.548C67.4285 139.461 67.497 139.43 67.5834 139.455C68.2033 139.641 68.9063 139.737 69.694 139.743C70.4806 139.75 71.3141 139.659 72.1943 139.473C73.0745 139.287 73.9764 138.949 74.8997 138.459C75.2365 138.28 75.5583 138.078 75.8725 137.864C75.8404 137.955 75.8078 138.038 75.7756 138.134C75.6145 138.617 75.5616 139.055 75.6173 139.446C75.6731 139.836 75.8498 140.119 76.1475 140.292C76.9904 140.801 78.1493 140.286 79.6244 138.748C79.7482 138.624 79.8937 138.587 80.0614 138.636C80.2287 138.686 80.3241 138.798 80.3496 138.971C80.4115 139.43 80.5972 139.833 80.9076 140.181C81.6385 140.962 82.5438 141.334 83.622 141.297H83.6588C84.626 141.297 85.7103 141.04 86.9127 140.525C88.1147 140.01 89.1901 139.408 90.1388 138.72C91.087 138.031 91.8954 137.34 92.5649 136.645C92.6519 136.546 92.6949 136.428 92.6949 136.291C92.6949 136.155 92.6453 136.04 92.5465 135.947C92.4468 135.854 92.3292 135.811 92.1931 135.816Z" fill="#649C9F"/>
<path d="M170.16 135.268C170.049 134.685 170.222 134.195 170.681 133.798C170.556 134.307 170.383 134.796 170.16 135.268ZM157.344 135.603C157.87 135.293 158.332 135.15 158.728 135.175C158.841 135.187 158.921 135.215 158.97 135.259C159.02 135.302 159.051 135.392 159.063 135.528C159.088 135.739 158.908 135.975 158.525 136.235C158.437 136.285 158.332 136.347 158.209 136.422C157.402 136.831 156.739 137.054 156.219 137.092C155.921 137.116 155.853 137.017 156.014 136.794C156.374 136.31 156.816 135.913 157.344 135.603ZM144.499 131.953C144.53 131.711 144.576 131.559 144.639 131.497C144.787 131.385 144.948 131.373 145.122 131.459C145.196 131.546 145.15 131.819 144.982 132.278C144.815 132.738 144.676 132.967 144.564 132.967C144.514 132.967 144.483 132.859 144.471 132.641C144.459 132.425 144.468 132.194 144.499 131.953ZM143.503 136.124C143.466 136.161 143.401 136.223 143.308 136.31C143.215 136.397 143.048 136.552 142.806 136.775C142.564 136.999 142.31 137.219 142.044 137.435C141.777 137.653 141.455 137.898 141.077 138.171C140.698 138.444 140.324 138.692 139.952 138.915C139.58 139.139 139.174 139.35 138.734 139.548C138.294 139.747 137.872 139.902 137.47 140.013C137.067 140.125 136.654 140.181 136.233 140.181C135.812 140.181 135.421 140.113 135.062 139.976C133.81 139.492 133.029 138.152 132.719 135.956C133.339 134.393 133.804 133.159 134.114 132.253C134.151 132.166 134.191 132.111 134.234 132.086C134.278 132.061 134.355 132.049 134.467 132.049C134.467 132.049 138.968 131.733 143.545 131.431C143.49 131.931 143.434 132.507 143.442 132.569C143.362 133.878 143.412 135.036 143.564 136.078C143.544 136.094 143.521 136.103 143.503 136.124ZM132.571 133.63C132.521 133.63 132.49 133.522 132.477 133.305C132.465 133.088 132.474 132.858 132.506 132.616C132.536 132.374 132.583 132.222 132.645 132.16C132.793 132.049 132.954 132.036 133.128 132.123C133.203 132.209 133.156 132.483 132.989 132.941C132.822 133.401 132.682 133.63 132.571 133.63ZM132.812 130.727C132.908 130.122 133.029 129.433 133.143 129.092C133.5 128.03 133.837 126.888 134.296 126.989C134.736 127.086 134.702 127.52 133.575 130.82C133.505 131.099 133.328 131.181 132.943 131.155C132.806 131.146 132.763 131.012 132.812 130.727ZM144.785 129.969C144.904 129.209 145.473 126.983 146.098 126.989C146.485 126.993 146.462 127.346 145.547 130.062C145.516 130.23 145.312 130.519 144.857 130.378C144.77 130.338 144.744 130.205 144.785 129.969ZM185.657 136.291C185.564 136.192 185.449 136.143 185.313 136.143C185.177 136.143 185.059 136.186 184.96 136.273C184.352 136.868 183.634 137.399 182.803 137.864C181.973 138.329 181.154 138.686 180.349 138.934C179.543 139.182 178.763 139.368 178.007 139.492C177.25 139.617 176.593 139.666 176.035 139.641C175.478 139.617 175.075 139.53 174.826 139.381C174.418 139.145 174.21 138.857 174.204 138.515C174.198 138.174 174.35 137.718 174.66 137.147C174.784 136.899 174.874 136.704 174.929 136.562C174.985 136.419 175.006 136.248 174.994 136.049C174.982 135.851 174.895 135.69 174.734 135.566C174.572 135.442 174.399 135.376 174.214 135.37C174.028 135.364 173.878 135.383 173.767 135.426C173.656 135.47 173.507 135.547 173.321 135.658C172.689 136.019 172.013 136.198 171.294 136.198C171.208 136.198 171.133 136.146 171.071 136.04C171.009 135.935 170.99 135.851 171.015 135.789C171.697 134.251 171.833 133.289 171.425 132.904C171.127 132.619 170.718 132.632 170.198 132.941C169.763 133.264 169.461 133.674 169.286 134.17C169.113 134.666 169.101 135.168 169.249 135.677C169.323 135.961 169.453 136.214 169.637 136.437C169.556 136.5 169.461 136.572 169.336 136.663C169.132 136.813 168.747 137.064 168.183 137.417C167.619 137.771 167.036 138.106 166.435 138.422C165.834 138.738 165.112 139.052 164.269 139.362C163.426 139.672 162.603 139.902 161.796 140.051C160.991 140.199 160.123 140.246 159.194 140.19C158.264 140.134 157.396 139.939 156.591 139.604C155.686 139.244 155.277 138.748 155.363 138.115C155.351 138.053 155.37 138.003 155.419 137.966C155.468 137.929 155.525 137.917 155.586 137.929C156.838 138.003 157.991 137.712 159.044 137.054C159.776 136.571 160.111 136.03 160.049 135.436C160.024 135.088 159.891 134.796 159.649 134.561C159.408 134.325 159.119 134.207 158.785 134.207C158.288 134.182 157.727 134.331 157.102 134.653C156.476 134.976 155.908 135.423 155.401 135.994C155.351 136.049 155.311 136.105 155.265 136.161C155.227 136.199 155.183 136.241 155.109 136.31C155.017 136.397 154.849 136.552 154.607 136.775C154.366 136.999 154.111 137.219 153.844 137.435C153.578 137.653 153.256 137.898 152.878 138.171C152.5 138.444 152.125 138.692 151.753 138.915C151.382 139.139 150.975 139.35 150.536 139.548C150.095 139.747 149.674 139.902 149.271 140.013C148.868 140.125 148.456 140.181 148.035 140.181C147.613 140.181 147.223 140.113 146.863 139.976C145.611 139.492 144.83 138.152 144.521 135.956C145.141 134.393 145.605 133.159 145.915 132.253C145.928 132.222 146.079 131.813 146.277 131.254C149.443 131.051 152.195 130.89 152.917 130.89C153.053 130.89 153.168 130.84 153.26 130.741C153.354 130.642 153.4 130.527 153.4 130.397C153.4 130.266 153.354 130.152 153.26 130.052C153.168 129.953 153.053 129.904 152.917 129.904C152.446 129.904 149.706 130.045 146.553 130.246C146.762 129.601 146.987 128.849 147.089 128.348C147.312 127.25 147.543 125.715 145.949 125.937C145.623 125.983 145.313 126.247 145.01 126.682C144.706 127.116 144.186 128.404 144.006 129.136C143.847 129.781 143.823 129.736 143.684 130.454C139.209 130.745 134.801 131.043 134.801 131.043C134.765 131.043 134.733 131.034 134.709 131.015C134.684 130.997 134.662 130.96 134.644 130.904C134.625 130.848 134.636 130.771 134.671 130.671C134.765 130.416 134.995 129.874 135.218 128.776C135.441 127.678 135.438 127.081 135.319 126.682C135.138 126.076 134.643 125.851 134.147 125.937C133.825 126 133.512 126.247 133.209 126.682C132.905 127.116 132.348 128.498 132.169 129.23C131.989 129.961 131.939 129.977 131.827 130.746C131.777 131.068 131.641 131.242 131.418 131.266C130.873 131.304 127.323 131.56 127.137 131.571C126.951 131.584 126.852 131.59 126.84 131.59C126.704 131.59 126.592 131.64 126.505 131.739C126.418 131.839 126.374 131.956 126.374 132.093C126.374 132.23 126.424 132.344 126.524 132.437C126.623 132.53 126.741 132.571 126.877 132.558H126.914C126.926 132.558 127.02 132.552 127.193 132.539C127.367 132.527 130.73 132.29 131.251 132.253C131.35 132.241 131.436 132.265 131.511 132.327C131.585 132.39 131.628 132.47 131.641 132.569C131.547 134.105 131.624 135.445 131.85 136.613C131.842 136.618 131.834 136.62 131.827 136.626C131.753 136.701 131.637 136.803 131.482 136.933C131.327 137.064 131.039 137.284 130.618 137.594C130.197 137.904 129.769 138.196 129.335 138.469C128.901 138.742 128.387 139.012 127.792 139.278C127.197 139.545 126.63 139.74 126.091 139.864C125.551 139.989 124.987 140.019 124.399 139.958C123.81 139.896 123.28 139.71 122.809 139.399C122.561 139.238 122.332 139.018 122.121 138.738C121.91 138.459 121.749 138.196 121.638 137.948C121.526 137.7 121.427 137.435 121.34 137.156C121.254 136.878 121.201 136.685 121.182 136.58C121.163 136.475 121.148 136.391 121.136 136.328C121.098 136.093 120.962 135.956 120.726 135.919C120.478 135.882 120.305 135.975 120.206 136.198C119.722 137.253 119.177 138.233 118.57 139.139C117.962 140.045 117.554 140.429 117.343 140.292C117.306 140.292 117.25 140.23 117.176 140.106C116.952 139.461 117.014 138.841 117.361 138.245C117.708 137.514 118.192 136.896 118.812 136.394C119.431 135.891 120.132 135.547 120.913 135.361C121.098 135.312 121.219 135.197 121.275 135.017C121.331 134.837 121.294 134.679 121.163 134.542C121.034 134.406 120.875 134.363 120.69 134.412C119.76 134.635 118.926 135.047 118.189 135.649C117.816 135.954 117.485 136.291 117.197 136.66C117.147 136.715 117.11 136.76 117.042 136.831C116.924 136.955 116.699 137.178 116.364 137.501C116.029 137.824 115.685 138.121 115.332 138.395C114.978 138.667 114.547 138.943 114.04 139.223C113.531 139.501 113.032 139.706 112.543 139.836C112.053 139.967 111.52 140.007 110.944 139.958C110.367 139.908 109.819 139.728 109.298 139.418C108.79 139.07 108.425 138.605 108.201 138.022C108.09 137.786 107.994 137.603 107.913 137.473C107.833 137.343 107.712 137.191 107.551 137.017C107.389 136.843 107.2 136.729 106.984 136.673C106.767 136.617 106.522 136.607 106.249 136.645C105.952 136.695 105.586 136.887 105.152 137.222C104.718 137.557 104.291 137.96 103.869 138.431C103.832 138.481 103.779 138.496 103.711 138.478C103.643 138.459 103.603 138.419 103.59 138.357C103.528 137.935 103.364 137.557 103.098 137.222C102.831 136.887 102.506 136.633 102.122 136.459C101.898 136.409 101.7 136.385 101.527 136.385C101.353 136.385 101.111 136.422 100.802 136.496C100.492 136.571 100.126 136.754 99.7042 137.045C99.2828 137.337 98.8184 137.731 98.31 138.227C98.2604 138.289 98.2074 138.308 98.1517 138.282C98.0964 138.258 98.0742 138.215 98.087 138.152C98.087 138.103 98.2046 137.569 98.4404 136.552C98.4777 136.428 98.4588 136.307 98.3842 136.189C98.31 136.071 98.2075 135.997 98.0775 135.966C97.9476 135.935 97.8233 135.956 97.7057 136.03C97.588 136.105 97.5167 136.211 97.4921 136.347L96.5996 140.274C96.5377 140.522 96.6247 140.702 96.86 140.813C97.0957 140.925 97.2942 140.882 97.4548 140.683C98.0374 139.939 98.5765 139.321 99.0725 138.832C99.5682 138.342 99.9835 137.994 100.318 137.789C100.652 137.585 100.922 137.452 101.127 137.39C101.331 137.328 101.514 137.309 101.675 137.333C101.96 137.371 102.224 137.644 102.465 138.152C102.707 138.661 102.81 139.287 102.772 140.032C102.76 140.292 102.875 140.46 103.116 140.534C103.358 140.609 103.547 140.534 103.683 140.311C104.042 139.703 104.523 139.111 105.124 138.534C105.725 137.957 106.15 137.65 106.398 137.612C106.608 137.575 106.77 137.61 106.881 137.715C106.993 137.82 107.142 138.072 107.328 138.469C107.625 139.225 108.12 139.827 108.815 140.274C109.608 140.745 110.47 140.981 111.399 140.981C112.056 140.981 112.735 140.851 113.435 140.59C114.135 140.33 114.733 140.032 115.229 139.697C115.519 139.501 115.804 139.286 116.085 139.06C116.035 139.55 116.1 140.048 116.302 140.553C116.389 140.764 116.528 140.935 116.72 141.065C116.912 141.195 117.12 141.266 117.343 141.279H117.361C117.795 141.266 118.269 141.031 118.784 140.571C119.298 140.113 119.772 139.548 120.206 138.878C120.305 138.729 120.445 138.661 120.624 138.673C120.804 138.686 120.937 138.767 121.024 138.915C121.334 139.449 121.749 139.883 122.27 140.218C122.828 140.578 123.441 140.804 124.111 140.897C124.78 140.99 125.418 140.981 126.026 140.869C126.633 140.758 127.265 140.562 127.922 140.283C128.579 140.004 129.149 139.722 129.633 139.436C130.116 139.151 130.593 138.835 131.065 138.487C131.535 138.14 131.86 137.889 132.04 137.733C132.069 137.709 132.09 137.69 132.117 137.667C132.159 137.802 132.189 137.95 132.236 138.078C132.769 139.53 133.593 140.466 134.709 140.888C135.204 141.074 135.707 141.167 136.215 141.167C136.909 141.167 137.656 141.015 138.455 140.711C139.254 140.407 139.955 140.069 140.556 139.697C141.158 139.325 141.765 138.897 142.378 138.413C142.992 137.929 143.413 137.579 143.642 137.361C143.697 137.31 143.739 137.267 143.788 137.22C143.864 137.514 143.939 137.81 144.037 138.078C144.57 139.53 145.395 140.466 146.51 140.888C147.006 141.074 147.508 141.167 148.016 141.167C148.71 141.167 149.457 141.015 150.256 140.711C151.056 140.407 151.756 140.069 152.358 139.697C152.958 139.325 153.566 138.897 154.18 138.413C154.25 138.357 154.31 138.309 154.375 138.257C154.375 138.409 154.392 138.578 154.443 138.776C154.499 138.993 154.589 139.198 154.712 139.39C154.837 139.582 155.025 139.781 155.279 139.985C155.533 140.19 155.847 140.367 156.219 140.516C157.384 140.987 158.599 141.217 159.863 141.204C160.854 141.204 161.896 141.062 162.986 140.777C164.077 140.491 165.01 140.175 165.785 139.827C166.559 139.48 167.337 139.074 168.118 138.608C168.899 138.143 169.425 137.811 169.699 137.612C169.971 137.414 170.2 137.24 170.386 137.092C170.414 137.07 170.429 137.043 170.45 137.018C170.728 137.118 171.008 137.176 171.294 137.166C172.075 137.203 172.806 137.036 173.488 136.663C173.575 136.614 173.643 136.589 173.692 136.589C173.792 136.601 173.823 136.645 173.786 136.72C173.686 136.918 173.609 137.082 173.553 137.213C173.498 137.343 173.426 137.529 173.34 137.771C173.253 138.013 173.212 138.227 173.219 138.413C173.225 138.599 173.253 138.807 173.302 139.036C173.352 139.266 173.463 139.48 173.637 139.678C173.811 139.877 174.039 140.057 174.325 140.218C174.982 140.516 175.664 140.646 176.37 140.609C177.832 140.609 179.444 140.296 181.204 139.669C182.964 139.043 184.445 138.146 185.648 136.98C185.747 136.881 185.797 136.766 185.797 136.636C185.797 136.505 185.75 136.391 185.657 136.291Z" fill="#649C9F"/>
</svg>
