<svg width="54" height="56" viewBox="0 0 54 56" fill="none" xmlns="http://www.w3.org/2000/svg">
<path d="M46.7796 48.7329C46.5534 45.7879 48.8289 42.8029 48.8289 42.8029C52.0562 38.3461 53.9592 32.8665 53.9592 26.9423C53.9592 11.9957 41.8478 -0.120552 26.9077 -0.120552C11.9671 -0.120552 -0.144287 11.9957 -0.144287 26.9423C-0.144287 35.995 4.30325 44.0034 11.127 48.9163C10.2962 44.992 11.3185 40.6972 13.8076 37.6949C14.4556 36.9124 15.1869 36.2155 15.9425 35.514C14.7767 34.989 14.0118 33.1947 13.5362 31.8785C12.916 30.1669 12.6718 28.3662 12.4352 26.6257C12.2737 25.438 12.0921 24.1044 12.5272 22.8345C12.5862 22.6603 12.7314 22.5278 12.905 22.4896C13.0785 22.445 13.2648 22.4948 13.3985 22.6221C15.8418 24.9588 16.8387 28.2395 17.7234 31.6782L17.7656 31.8397C17.8842 32.2865 18.0242 32.8601 18.0833 33.4048C19.4151 31.8837 20.2697 30.1061 20.559 28.2591L20.5625 28.2429C20.7881 26.7768 20.3519 25.4751 19.6252 23.973C19.4458 23.602 19.2595 23.2391 19.0524 22.8374C18.4732 21.7163 17.8761 20.5569 17.5463 19.2905C16.7409 16.1932 17.6262 12.5271 19.9752 9.23188C20.6064 8.34514 21.2064 8.30347 21.6022 8.42502C22.0031 8.54831 22.2288 8.86376 22.3798 9.07271L22.7987 9.65557C23.9367 8.31041 25.8449 7.83231 27.3868 7.56664C27.539 7.54059 28.0024 7.46361 28.3114 7.80916C28.4271 7.93766 28.4751 8.07773 28.5 8.1524L28.6724 8.64265C29.1648 8.03663 29.796 7.55275 30.5019 7.23961C30.569 7.21009 30.7229 7.13369 30.9207 7.14931C31.1319 7.16031 31.5155 7.27029 31.703 7.88441L32.2046 9.53518C32.4042 9.42115 32.6328 9.29381 32.8636 9.18094C33.0638 9.08428 33.2813 8.99688 33.5296 8.99688C33.5591 8.99688 33.5892 8.99804 33.6181 9.00093C33.9594 9.02756 34.5675 9.2423 34.8047 10.3797C34.9916 11.2768 35.1606 12.3349 34.9934 13.386C34.9193 13.8491 34.6908 14.4018 34.3454 14.9529C34.4096 14.9361 34.4738 14.9193 34.538 14.9037C34.7093 14.8631 35.2271 14.7387 35.5864 15.1271C35.8844 15.45 35.8121 15.8784 35.7843 16.0393C34.8892 21.3429 30.8473 26.0128 25.7245 27.6601C25.691 27.6711 25.6574 27.6821 25.6244 27.6919C24.2752 28.115 23.1799 28.2204 22.1802 28.0213C21.9719 28.2354 21.7757 28.427 21.5808 28.6047C21.336 30.006 20.8049 31.3558 20.0007 32.6187C20.9408 32.136 21.8203 31.7569 22.6801 31.4623C24.8023 30.7353 26.9048 30.5263 28.765 30.8557C29.5079 29.5047 30.8363 28.7459 32.1225 28.0114C32.351 27.88 32.5795 27.7498 32.8023 27.6161C34.7104 26.4781 36.3715 25.0137 37.7393 23.2634C37.8492 23.1222 38.0124 23.0464 38.1941 23.0603C38.3705 23.0718 38.5291 23.1702 38.6176 23.3225C39.2737 24.4459 39.055 25.9092 37.9696 27.6722C37.2058 28.9103 36.4768 29.8306 35.679 30.5593C38.6847 31.0386 41.4474 32.9504 42.9083 35.5684C43.0449 35.8132 42.9668 36.124 42.7313 36.2751C42.1255 36.6646 41.4544 36.9801 40.7346 37.211C40.0843 37.4206 39.3587 37.5635 38.5765 37.637C38.8918 38.9307 38.5881 40.3615 37.7792 41.3866C37.6635 41.5336 37.5125 41.6945 37.2753 41.7709L37.2568 41.7767C36.8483 41.8977 36.5029 41.6777 36.3733 41.5944C35.9202 41.305 35.5314 40.9571 35.1559 40.6208L35.1444 40.6104L32.1988 37.9716C32.3458 39.0847 32.3811 40.2371 32.3024 41.3987C32.2173 42.6687 31.7446 43.5056 30.9717 43.7539C30.9173 43.7719 30.8617 43.7869 30.8004 43.7996C30.0234 43.9525 29.2521 43.5045 28.614 42.5338C26.5988 39.4632 26.2846 35.3212 27.8144 31.9815C27.8427 31.9201 27.8711 31.8646 27.9011 31.8119C26.3876 31.6649 24.6993 31.8923 23.0255 32.4694C21.1665 33.1055 19.4996 34.0646 18.1145 34.9184C17.776 35.2564 17.3872 35.6268 16.9006 36.0771C16.2324 36.6971 15.4808 37.3945 14.8311 38.1406C15.2042 38.0312 15.4692 37.9907 15.5479 37.9803C16.7722 37.8165 17.9675 37.9982 19.1258 38.1736L21.8903 38.5921C22.0801 38.621 22.2403 38.7507 22.3075 38.9295C22.3757 39.1084 22.3427 39.3115 22.2189 39.4586C21.3777 40.475 20.2251 41.2401 18.8857 41.6714C18.376 41.8352 17.8483 41.9469 17.3161 42.0024C16.5136 42.0864 13.8625 42.2727 12.9275 41.1632C11.7536 43.8778 11.5794 47.0092 12.4537 49.7695L12.471 49.8245C16.6495 52.4685 21.5975 54.0047 26.9077 54.0047C30.0037 54.0047 32.9788 53.4843 35.7496 52.5258C35.7496 52.5258 41.2692 57.4173 49.2223 55.5513C49.2223 55.5513 47.2372 54.6854 46.7796 48.7329Z" fill="#649C9F"/>
</svg>
