<svg width="289" height="56" viewBox="0 0 289 56" fill="none" xmlns="http://www.w3.org/2000/svg">
<g clip-path="url(#clip0_136_516)">
<mask id="mask0_136_516" style="mask-type:luminance" maskUnits="userSpaceOnUse" x="-30" y="-30" width="349" height="116">
<path d="M-29.0736 -29.9535H318.074V85.8088H-29.0736V-29.9535Z" fill="white"/>
</mask>
<g mask="url(#mask0_136_516)">
<path d="M35.8541 39.8178C36.207 40.1339 36.564 40.4528 36.9453 40.6959C36.9482 40.6982 36.9522 40.7005 36.9563 40.7028C37.602 39.834 37.805 38.6868 37.4891 37.6896H37.4666C36.0444 37.6896 34.5847 37.454 33.1249 36.9892C32.8021 36.8856 32.422 36.6761 32.0141 36.3768L35.8541 39.8178Z" fill="#649C9F"/>
<path d="M14.0829 27.6241C14.4816 29.2077 14.9554 30.7849 15.49 32.3124C15.7839 33.1505 16.1797 34.0604 16.8931 34.4951C16.9162 34.4575 16.9451 34.4234 16.9804 34.3915C17.1962 33.8636 16.8624 32.5949 16.7374 32.1156L16.6917 31.9449C15.9564 29.0844 15.1516 26.3443 13.4534 24.2536C13.6004 24.8382 13.6987 25.468 13.7797 25.9849C13.8642 26.5353 13.9516 27.1037 14.0829 27.6241Z" fill="#649C9F"/>
<path d="M33.9915 36.135C33.6541 36.0036 33.3504 35.8791 33.0646 35.7553C32.9836 35.7199 32.902 35.6835 32.8187 35.6453C33.0571 35.8056 33.27 35.9173 33.4488 35.974C33.6258 36.0308 33.8075 36.0846 33.9915 36.135Z" fill="#649C9F"/>
<path d="M33.3573 34.7416C32.7307 34.5333 31.816 34.2022 30.9527 33.6963C30.9823 33.7576 31.0123 33.8196 31.0407 33.8827C31.1848 34.0968 31.3838 34.3446 31.6135 34.5923C32.1232 34.9552 32.7018 35.2261 33.1999 35.4426C34.2402 35.8935 35.3164 36.2732 36.138 36.5545C37.8014 36.7443 39.3757 36.5817 40.7139 36.0914C38.2087 35.9855 35.7341 35.5323 33.3573 34.7416Z" fill="#649C9F"/>
<path d="M41.7121 35.6427C41.505 35.3197 41.262 34.9961 40.9912 34.6807C40.408 34.2454 39.646 33.9936 38.9784 33.7922C36.9198 33.1706 34.7518 32.667 32.5365 32.296C32.1795 32.3828 31.8283 32.4337 31.4939 32.4488C31.0773 32.4685 30.6671 32.4378 30.2713 32.4083C30.2574 32.4077 30.2441 32.4065 30.2326 32.4054C30.3616 32.6079 30.4947 32.8314 30.637 33.0866C31.5968 33.7563 32.7095 34.1667 33.4645 34.4179C36.0409 35.2745 38.7313 35.7295 41.4622 35.7688C41.5449 35.7283 41.6306 35.6866 41.7121 35.6427Z" fill="#649C9F"/>
<path d="M15.6887 39.0361C15.4856 39.0633 15.249 39.1194 15.0048 39.1975C14.5934 39.3307 14.0924 39.5547 13.8147 39.8157C13.9489 39.7827 14.0837 39.7503 14.2191 39.7144L14.2347 39.7104C14.8822 39.5396 15.5527 39.3637 16.2245 39.333C16.8609 39.3029 17.5066 39.3093 18.1309 39.3145L18.1453 39.315C18.5689 39.3179 19.0416 39.3214 19.5218 39.3104L18.9744 39.2276C17.8856 39.0627 16.7596 38.8919 15.6887 39.0361Z" fill="#649C9F"/>
<path d="M46.7794 48.7329C46.5532 45.7879 48.8287 42.803 48.8287 42.803C52.056 38.3461 53.959 32.8665 53.959 26.9424C53.959 11.9957 41.8476 -0.120522 26.9075 -0.120522C11.9669 -0.120522 -0.144478 11.9957 -0.144478 26.9424C-0.144478 35.995 4.30305 44.0034 11.1268 48.9164C10.296 44.992 11.3183 40.6973 13.8074 37.695C14.4554 36.9124 15.1867 36.2155 15.9423 35.514C14.7765 34.989 14.0116 33.1947 13.536 31.8785C12.9158 30.1669 12.6716 28.3663 12.435 26.6258C12.2736 25.438 12.0919 24.1045 12.527 22.8346C12.586 22.6603 12.7312 22.5278 12.9048 22.4896C13.0784 22.445 13.2647 22.4948 13.3983 22.6221C15.8416 24.9588 16.8385 28.2395 17.7232 31.6782L17.7654 31.8397C17.884 32.2865 18.024 32.8601 18.0831 33.4048C19.4149 31.8837 20.2695 30.1062 20.5588 28.2592L20.5623 28.243C20.7879 26.7768 20.3517 25.4751 19.625 23.9731C19.4456 23.6021 19.2593 23.2391 19.0522 22.8374C18.473 21.7163 17.8759 20.5569 17.5461 19.2905C16.7408 16.1933 17.626 12.5271 19.975 9.23191C20.6062 8.34517 21.2062 8.3035 21.602 8.42505C22.0029 8.54834 22.2286 8.86379 22.3796 9.07274L22.7985 9.6556C23.9365 8.31044 25.8447 7.83234 27.3866 7.56667C27.5388 7.54062 28.0022 7.46364 28.3112 7.80919C28.4269 7.93769 28.4749 8.07776 28.4998 8.15243L28.6722 8.64268C29.1646 8.03666 29.7958 7.55278 30.5017 7.23964C30.5688 7.21012 30.7227 7.13372 30.9206 7.14935C31.1317 7.16034 31.5153 7.27032 31.7028 7.88444L32.2044 9.53521C32.404 9.42118 32.6326 9.29384 32.8634 9.18097C33.0636 9.08431 33.2812 8.99691 33.5294 8.99691C33.5589 8.99691 33.589 8.99807 33.6179 9.00097C33.9593 9.02759 34.5673 9.24233 34.8046 10.3797C34.9914 11.2769 35.1604 12.3349 34.9932 13.386C34.9191 13.8491 34.6906 14.4019 34.3452 14.9529C34.4094 14.9361 34.4736 14.9193 34.5378 14.9037C34.7091 14.8632 35.2269 14.7387 35.5862 15.1271C35.8842 15.4501 35.8119 15.8784 35.7841 16.0393C34.889 21.343 30.8471 26.0128 25.7243 27.6601C25.6908 27.6711 25.6572 27.6821 25.6243 27.6919C24.275 28.115 23.1798 28.2204 22.18 28.0213C21.9717 28.2354 21.7755 28.427 21.5806 28.6047C21.3358 30.006 20.8047 31.3558 20.0005 32.6188C20.9407 32.1361 21.8201 31.7569 22.6799 31.4623C24.8021 30.7353 26.9046 30.5264 28.7648 30.8557C29.5077 29.5048 30.8361 28.746 32.1223 28.0114C32.3508 27.8801 32.5793 27.7498 32.8021 27.6161C34.7102 26.4782 36.3713 25.0138 37.7391 23.2635C37.849 23.1222 38.0122 23.0464 38.1939 23.0603C38.3703 23.0719 38.5289 23.1703 38.6174 23.3225C39.2735 24.446 39.0548 25.9092 37.9694 27.6723C37.2057 28.9103 36.4766 29.8306 35.6788 30.5594C38.6845 31.0386 41.4472 32.9504 42.9081 35.5684C43.0447 35.8132 42.9666 36.1241 42.7311 36.2751C42.1253 36.6647 41.4542 36.9801 40.7344 37.2111C40.0841 37.4206 39.3585 37.5636 38.5763 37.6371C38.8916 38.9307 38.5879 40.3615 37.779 41.3866C37.6633 41.5336 37.5123 41.6945 37.2751 41.7709L37.2566 41.7767C36.8481 41.8977 36.5027 41.6778 36.3731 41.5944C35.9201 41.305 35.5312 40.9571 35.1558 40.6208L35.1442 40.6104L32.1986 37.9716C32.3456 39.0847 32.3809 40.2371 32.3022 41.3988C32.2172 42.6687 31.7445 43.5056 30.9715 43.754C30.9171 43.7719 30.8615 43.7869 30.8002 43.7997C30.0232 43.9525 29.2519 43.5045 28.6138 42.5338C26.5986 39.4632 26.2844 35.3213 27.8142 31.9815C27.8425 31.9202 27.8709 31.8646 27.901 31.8119C26.3874 31.6649 24.6991 31.8924 23.0253 32.4694C21.1663 33.1056 19.4994 34.0647 18.1143 34.9184C17.7758 35.2564 17.387 35.6269 16.9004 36.0772C16.2322 36.6971 15.4806 37.3946 14.8309 38.1406C15.2041 38.0312 15.469 37.9907 15.5477 37.9803C16.772 37.8165 17.9673 37.9983 19.1257 38.1736L21.8901 38.5921C22.0799 38.6211 22.2401 38.7507 22.3073 38.9296C22.3755 39.1084 22.3426 39.3116 22.2187 39.4586C21.3775 40.475 20.225 41.2402 18.8855 41.6714C18.3758 41.8352 17.8482 41.9469 17.3159 42.0025C16.5134 42.0864 13.8623 42.2728 12.9273 41.1632C11.7534 43.8778 11.5793 47.0092 12.4535 49.7695L12.4708 49.8245C16.6493 52.4685 21.5973 54.0047 26.9075 54.0047C30.0035 54.0047 32.9786 53.4844 35.7494 52.5258C35.7494 52.5258 41.269 57.4174 49.2222 55.5513C49.2222 55.5513 47.2371 54.6854 46.7794 48.7329Z" fill="#649C9F"/>
<path d="M34.4311 31.5034C34.0567 31.7309 33.6639 31.9219 33.2589 32.0724C35.2469 32.4318 37.2042 32.8995 39.0771 33.4656C39.4155 33.5675 39.802 33.6919 40.1868 33.854C38.5939 32.4203 36.5174 31.5677 34.4409 31.5046L34.4311 31.5034Z" fill="#649C9F"/>
<path d="M16.2402 39.6728C15.605 39.7018 14.9546 39.8731 14.3252 40.0386L14.3055 40.0433C14.2598 40.0554 14.2135 40.0682 14.1678 40.0803C16.1332 40.3998 18.1455 40.2476 20.0288 39.6387C19.3976 39.667 18.7669 39.6607 18.1542 39.656C17.5212 39.6497 16.8761 39.6433 16.2402 39.6728Z" fill="#649C9F"/>
<path d="M13.7104 40.4445C14.0333 40.9474 15.7742 41.0956 17.205 40.9434C18.1886 40.8386 19.13 40.5209 19.9486 40.0202C17.9121 40.6413 15.7401 40.7478 13.6479 40.3264C13.6618 40.36 13.6815 40.3993 13.7104 40.4445Z" fill="#649C9F"/>
<path d="M13.3972 25.7466C13.4244 25.9955 13.4568 26.2398 13.4897 26.4777C13.7183 28.1649 13.9555 29.9095 14.537 31.5157C15.3383 33.729 15.9933 34.3877 16.3977 34.5538C15.789 34.0231 15.4355 33.1873 15.1694 32.4261C14.6284 30.8813 14.1511 29.2936 13.7513 27.7077C13.6188 27.1809 13.5285 26.5992 13.4417 26.0372C13.4273 25.9417 13.4128 25.8445 13.3972 25.7466Z" fill="#649C9F"/>
<path d="M29.8345 21.0346C30.2569 20.5727 30.67 20.1091 31.0709 19.6605L31.1253 19.5997C32.1193 18.4872 33.0259 17.4813 34.0003 16.4961C31.8913 17.1426 29.897 18.2459 28.2208 19.694C28.211 19.7056 28.2046 19.7097 28.2006 19.7131C27.4068 20.4025 26.6928 21.1538 26.0726 21.9514L26.0714 21.9531C25.6687 23.3423 25.0734 24.6608 24.3004 25.8763C26.2942 24.776 28.299 22.7189 29.8345 21.0346Z" fill="#649C9F"/>
<path d="M27.6704 9.00451C27.3233 10.0579 27.3308 11.0633 27.3389 12.126L27.3395 12.203C27.3418 12.53 27.3435 12.8687 27.3348 13.2183C27.3048 14.498 27.1792 16.1372 26.471 17.4714C26.4751 17.7828 26.4693 18.071 26.4537 18.3529C26.4334 18.7314 26.3952 19.1198 26.3368 19.5371C26.6452 19.2234 26.9692 18.9195 27.3001 18.6307C28.4006 17.4968 29.3969 16.3653 29.4681 15.0195C29.5068 14.2572 29.236 13.4845 28.9745 12.7373L27.6704 9.00451Z" fill="#649C9F"/>
<path d="M29.1235 9.86224C29.1189 9.87208 29.112 9.87902 29.1062 9.88539L29.3966 10.7183C30.0516 10.7079 30.6776 10.4098 31.2585 10.0833L30.7146 8.29713C30.0516 8.65599 29.488 9.2105 29.1235 9.86224Z" fill="#649C9F"/>
<path d="M25.3984 11.5699C25.2283 11.9311 25.0374 12.3357 24.9789 12.7541C25.594 13.7242 25.9839 14.5629 26.2055 15.3912C26.3166 15.8027 26.3913 16.2467 26.4335 16.7427C26.8819 15.5857 26.9693 14.2562 26.9947 13.2108C27.0034 12.8352 27.0005 12.4763 26.9976 12.129C26.9895 11.0316 26.9826 9.9961 27.3419 8.89983C26.4566 9.44854 25.9168 10.4759 25.3984 11.5699Z" fill="#649C9F"/>
<path d="M21.5148 9.69541C21.4037 9.53971 21.3279 9.4552 21.2891 9.44363C21.2891 9.44363 21.2874 9.44305 21.2851 9.44305C21.2816 9.44305 21.2735 9.44363 21.2619 9.44768C21.178 9.4743 21.0247 9.59296 20.8425 9.84937C18.6757 12.8881 17.85 16.2313 18.5773 19.023C18.8753 20.1707 19.4186 21.2253 19.9937 22.3407L20.022 22.3957C20.2095 22.7598 20.4033 23.1354 20.5838 23.5099C21.0976 24.5726 21.5819 25.7314 21.6721 27.0158C23.891 24.627 25.2107 21.5344 25.3918 18.2937C25.4479 17.2773 25.3791 16.4177 25.1789 15.6676C24.7993 14.2576 23.9083 13.0195 23.0468 11.8225L21.5148 9.69541Z" fill="#649C9F"/>
<path d="M23.4473 10.5569L23.9101 11.1994C24.1554 11.5398 24.4401 11.9386 24.7172 12.3524C24.8156 12.0034 24.9735 11.6717 25.091 11.424C25.5782 10.3937 26.1266 9.34317 27.0015 8.7221C25.7963 8.96578 24.237 9.42999 23.4473 10.5569Z" fill="#649C9F"/>
<path d="M37.9218 24.7128C36.609 26.2195 35.07 27.5033 33.3476 28.5306C33.1364 28.6568 32.9206 28.7807 32.7048 28.9046L32.6492 28.9358C31.5199 29.5812 30.3529 30.2486 29.7413 31.2939C29.7419 31.2979 29.7442 31.3026 29.7448 31.3066C29.9299 31.3153 30.1145 31.3286 30.2927 31.3419L30.3401 31.3454C30.7266 31.3749 31.0871 31.4016 31.4464 31.3859C32.5364 31.3356 33.6889 30.8476 34.6916 30.0118C35.5126 29.3271 36.2654 28.4056 37.0621 27.1137C37.6395 26.1755 37.9288 25.368 37.9218 24.7128Z" fill="#649C9F"/>
<path d="M29.8977 20.9745C28.4241 22.5917 26.5084 24.5637 24.5621 25.7225C26.9001 25.058 28.9934 23.7725 30.6331 21.9897C31.5287 21.0162 32.3625 19.8146 33.257 18.2078C33.622 17.5532 33.9738 16.8759 34.3036 16.1906C33.2112 17.2753 32.2288 18.3756 31.1914 19.5367C30.7691 20.009 30.3374 20.4918 29.8977 20.9745Z" fill="#649C9F"/>
<path d="M28.7832 32.4244C27.4009 35.4388 27.6839 39.1774 29.5046 41.9499C29.6713 42.2034 30.0867 42.7643 30.501 42.7643C30.531 42.7643 30.56 42.7614 30.5895 42.7556C31.1108 42.6607 31.2195 41.6385 31.241 41.3277C31.4105 38.7797 31.0113 36.3684 30.0855 34.3553C29.9484 34.1377 29.8414 33.9212 29.7714 33.7186C29.4971 33.2116 29.187 32.7312 28.8503 32.2953C28.8277 32.3341 28.8046 32.3769 28.7832 32.4244Z" fill="#649C9F"/>
<path d="M25.0959 25.9169C24.6573 26.0582 24.1794 26.1797 23.635 26.2891C23.4475 26.5501 23.2508 26.8066 23.0494 27.0526C23.0911 27.0531 23.1339 27.0543 23.1779 27.0543C23.7946 27.0543 24.4947 26.9298 25.3071 26.6752C30.0016 25.1946 33.73 21.0069 34.6742 16.1929C34.297 16.9859 33.929 17.7019 33.5547 18.3739C32.6452 20.0061 31.7964 21.2286 30.884 22.2206C29.3149 23.9258 27.3136 25.2038 25.0959 25.9169Z" fill="#649C9F"/>
<path d="M33.5295 10.0612C33.5255 10.0612 33.4821 10.0659 33.3282 10.1388C32.9938 10.302 32.6599 10.4988 32.3371 10.6898L32.3232 10.6973C31.5276 11.1673 30.7049 11.6518 29.7624 11.7629L29.9794 12.3857C30.2617 13.1926 30.5805 14.1065 30.5302 15.0749C30.503 15.597 30.3745 16.1069 30.1379 16.629C30.8576 16.225 31.6069 15.8719 32.3683 15.5785C33.0383 15.142 33.8223 13.9705 33.9409 13.2192C34.0821 12.3389 33.9293 11.3994 33.7621 10.5966C33.6782 10.1955 33.555 10.0705 33.5295 10.0612Z" fill="#649C9F"/>
<path d="M65.6565 29.9867L67.2251 28.1114C68.0848 28.8598 69.1992 29.3749 70.1938 29.3749C71.3341 29.3749 71.8919 28.9252 71.8919 28.208C71.8919 27.4463 71.2051 27.2021 70.1492 26.7685L68.5795 26.0988C67.3281 25.5883 66.1414 24.5604 66.1414 22.8031C66.1414 20.7998 67.9292 19.2006 70.4449 19.2006C71.8369 19.2006 73.292 19.7487 74.3317 20.7848L72.953 22.5073C72.1569 21.8967 71.4007 21.5604 70.4449 21.5604C69.5029 21.5604 68.9035 21.9528 68.9035 22.6439C68.9035 23.3854 69.6939 23.6551 70.7486 24.0747L72.2882 24.6993C73.7636 25.296 74.6858 26.2788 74.6858 27.9881C74.6858 29.9948 73.0126 31.7341 70.1324 31.7341C68.5604 31.7341 66.8895 31.1385 65.6565 29.9867Z" fill="#649C9F"/>
<path d="M82.4679 26.5078H88.282V28.6326H82.4679V26.5078ZM83.7598 19.4226H87.0294L90.8243 31.5116H87.9331L86.3524 25.3895C86.0168 24.181 85.694 22.7519 85.3712 21.4901H85.2965C85.0038 22.767 84.6815 24.181 84.3453 25.3895L82.7583 31.5116H79.9649L83.7598 19.4226Z" fill="#649C9F"/>
<path d="M96.733 19.4228H99.4639V29.2204H104.235V31.5119H96.733V19.4228Z" fill="#649C9F"/>
<path d="M110.859 19.4228H113.592V29.2204H118.361V31.5119H110.859V19.4228Z" fill="#649C9F"/>
<path d="M126.097 27.2002L122.457 19.4227H125.378L126.458 22.2004C126.781 23.1057 127.097 23.9438 127.442 24.8803H127.516C127.86 23.9438 128.205 23.1057 128.536 22.2004L129.615 19.4227H132.47L128.829 27.2002V31.5117H126.097V27.2002Z" fill="#649C9F"/>
<path d="M146.728 19.4228H149.708L151.669 24.7948C151.912 25.5079 152.122 26.2829 152.365 27.0261H152.438C152.681 26.2829 152.886 25.5079 153.128 24.7948L155.028 19.4228H158.008V31.5119H155.52V27.0753C155.52 25.8974 155.741 24.1378 155.869 22.9681H155.795L154.803 25.8291L153.096 30.4608H151.579L149.867 25.8291L148.904 22.9681H148.829C148.958 24.1378 149.178 25.8974 149.178 27.0753V31.5119H146.728V19.4228Z" fill="#649C9F"/>
<path d="M172.905 25.4155C172.905 22.9908 171.865 21.5606 170.217 21.5606C168.568 21.5606 167.528 22.9908 167.528 25.4155C167.528 27.839 168.568 29.3751 170.217 29.3751C171.865 29.3751 172.905 27.839 172.905 25.4155ZM164.728 25.4155C164.728 21.4651 166.958 19.2008 170.217 19.2008C173.476 19.2008 175.705 21.4813 175.705 25.4155C175.705 29.3647 173.476 31.7344 170.217 31.7344C166.958 31.7344 164.728 29.3647 164.728 25.4155Z" fill="#649C9F"/>
<path d="M182.31 25.9095V19.4227H185.042V26.189C185.042 28.5564 185.787 29.3748 187.14 29.3748C188.498 29.3748 189.281 28.5564 189.281 26.189V19.4227H191.914V25.9095C191.914 29.9687 190.266 31.734 187.14 31.734C184.013 31.734 182.31 29.9687 182.31 25.9095Z" fill="#649C9F"/>
<path d="M198.996 19.4228H201.795L204.949 25.4355L206.143 28.0917H206.217C206.089 26.8125 205.869 25.1189 205.869 23.6933V19.4228H208.472V31.5119H205.672L202.519 25.4842L201.324 22.843H201.25C201.379 24.1772 201.599 25.7967 201.599 27.2212V31.5119H198.996V19.4228Z" fill="#649C9F"/>
<path d="M215.614 19.4226H218.345V31.5116H215.614V19.4226Z" fill="#649C9F"/>
<path d="M229.31 26.4406L231.199 24.692L235.056 31.5116H231.999L229.31 26.4406ZM229.588 24.9918C231.024 24.9918 231.795 24.3766 231.795 23.1871C231.795 21.9919 231.024 21.5925 229.588 21.5925H228.19V24.9918H229.588ZM225.458 19.4231H229.81C232.373 19.4231 234.474 20.3133 234.474 23.1871C234.474 25.966 232.373 27.1618 229.81 27.1618H228.19V31.5116H225.458V19.4231Z" fill="#649C9F"/>
<path d="M203.884 39.8153C203.804 39.7533 203.759 39.6735 203.751 39.5751C203.741 39.4772 203.745 39.2949 203.799 39.2145C204.057 38.778 203.952 39.5496 203.884 39.8153ZM195.081 42.7099C194.796 44.0348 194.374 45.3146 193.814 46.5509C193.645 46.8889 193.523 47.1158 193.447 47.2316C193.371 47.3468 193.303 47.4 193.241 47.3913C193.125 47.3734 193.072 47.1778 193.081 46.8044C193.089 46.3419 193.267 45.744 193.614 45.0107C193.961 44.2767 194.414 43.4965 194.974 42.6694C195.001 42.6254 195.029 42.6075 195.061 42.6161C195.092 42.6254 195.098 42.6561 195.081 42.7099ZM222.024 38.2478C221.926 38.2531 221.842 38.2907 221.77 38.3613C221.344 38.8151 220.813 39.2706 220.177 39.729C219.542 40.1869 218.826 40.5938 218.03 40.9492C217.235 41.3051 216.526 41.4822 215.904 41.4822H215.878C215.317 41.5008 214.837 41.3092 214.438 40.9092C214.296 40.7489 214.218 40.4954 214.204 40.1487C214.191 39.802 214.213 39.4935 214.271 39.222C214.329 38.9511 214.393 38.7126 214.465 38.5083C214.491 38.4284 214.489 38.348 214.458 38.2681C214.426 38.1882 214.371 38.128 214.291 38.0881C214.211 38.0482 214.129 38.0372 214.045 38.0545C213.96 38.073 213.891 38.1217 213.837 38.2015C213.305 38.9841 212.734 39.6555 212.125 40.2152C211.516 40.7755 211.1 40.9891 210.878 40.856C210.833 40.7935 210.822 40.6667 210.844 40.4757C210.867 40.2847 210.947 40.0109 211.085 39.6555C211.222 39.3001 211.398 38.9395 211.611 38.5749C211.647 38.4863 211.651 38.3972 211.624 38.308C211.598 38.2195 211.545 38.1529 211.465 38.1084C211.385 38.0638 211.3 38.0528 211.211 38.0748C211.122 38.0974 211.052 38.1483 210.998 38.2282C210.988 38.2467 210.98 38.2646 210.97 38.2832C210.96 38.2924 210.946 38.297 210.936 38.308C210.137 39.1085 209.198 39.6821 208.123 40.0289C207.048 40.3756 205.95 40.4554 204.83 40.2691C204.75 40.2511 204.684 40.2048 204.63 40.129C204.577 40.0532 204.559 39.9756 204.577 39.8957C204.639 39.5751 204.643 39.2683 204.59 38.9754C204.537 38.682 204.426 38.4863 204.257 38.3879C203.91 38.1836 203.564 38.3746 203.217 38.9621C203.057 39.211 203.008 39.4819 203.071 39.7753C203.133 40.0688 203.288 40.2957 203.537 40.4554C203.643 40.5353 203.608 40.6736 203.43 40.8693C203.306 41.0204 203.146 41.1072 202.95 41.1292C202.755 41.1517 202.159 40.9492 202.017 40.5689C201.944 40.375 201.933 40.1846 202.004 39.9889C202.092 39.6688 202.266 39.3684 202.524 39.0883C202.781 38.8087 202.982 38.6686 203.124 38.6686C203.221 38.6686 203.306 38.6351 203.377 38.5685C203.448 38.5014 203.484 38.4215 203.484 38.3283C203.484 38.2345 203.45 38.1529 203.384 38.0817C203.317 38.0105 203.234 37.9747 203.137 37.9747H203.124C202.836 37.9747 202.531 38.1298 202.21 38.4215C202.207 38.4244 202.203 38.4255 202.2 38.4284C202.174 38.4539 202.143 38.4834 202.106 38.5158C202.104 38.5182 202.102 38.5193 202.1 38.5216C202.062 38.5558 202.017 38.5934 201.967 38.6351C201.864 38.7196 201.669 38.833 201.38 38.9754C201.091 39.1178 200.644 39.2683 200.339 39.2469C197.424 39.0443 196.531 39.7093 196.385 39.6515C196.238 39.5936 196.289 39.1085 196.28 38.9488C196.28 38.6727 196.236 38.4012 196.147 38.135C196.076 37.966 195.954 37.8907 195.781 37.9081C195.607 37.926 195.503 38.0238 195.467 38.2015C195.458 38.2727 195.44 38.3636 195.414 38.4747C195.387 38.5865 195.316 38.7861 195.201 39.075C195.085 39.3644 194.954 39.6266 194.807 39.8622C194.66 40.0977 194.447 40.3339 194.168 40.5689C193.887 40.8045 193.574 40.9671 193.227 41.0557C193.058 41.1182 192.907 41.0869 192.774 40.9625C192.721 40.8913 192.676 40.7958 192.641 40.676C192.605 40.5556 192.614 40.309 192.667 39.9357C192.721 39.5618 192.85 39.1178 193.054 38.6015C193.089 38.5129 193.089 38.4238 193.054 38.3347C193.018 38.2461 192.956 38.1836 192.867 38.1483C192.778 38.113 192.688 38.1147 192.594 38.1547C192.501 38.1946 192.436 38.2594 192.401 38.348C191.805 39.8332 191.757 40.856 192.254 41.4157C192.396 41.576 192.572 41.6848 192.781 41.7427C192.99 41.8006 193.196 41.7983 193.401 41.7358C193.872 41.6026 194.294 41.3827 194.667 41.0759C195.041 40.7692 195.334 40.4022 195.547 39.9756C195.538 40.2338 195.507 40.4913 195.454 40.7489C195.445 40.8114 195.422 40.8693 195.387 40.9225C194.534 41.9985 193.823 43.0676 193.254 44.1303C192.685 45.1924 192.392 46.0797 192.374 46.7911C192.339 47.2183 192.467 47.587 192.761 47.8978C192.885 48.0315 193.041 48.0981 193.227 48.0981C193.37 48.0981 193.503 48.0535 193.627 47.9649C194.054 47.6888 194.509 46.86 194.994 45.4772C195.478 44.0944 195.841 42.6827 196.081 41.2426C196.089 41.1807 196.116 41.1269 196.161 41.0823C197.089 39.4888 199.801 40.019 200.607 39.9154C200.901 39.8772 201.14 39.8153 201.362 39.74C201.355 39.7655 201.344 39.7898 201.337 39.8153C201.222 40.1712 201.235 40.5179 201.377 40.856C201.52 41.194 201.759 41.4423 202.097 41.6026C202.346 41.745 202.617 41.8162 202.91 41.8162C203.204 41.807 203.468 41.7225 203.704 41.5627C203.939 41.4024 204.114 41.1894 204.23 40.9225C204.265 40.86 204.315 40.838 204.377 40.856C204.821 40.9891 205.325 41.058 205.89 41.0626C206.454 41.0672 207.052 41.0024 207.683 40.8693C208.314 40.7356 208.961 40.4936 209.623 40.1423C209.865 40.0138 210.095 39.8685 210.321 39.7151C210.298 39.7805 210.275 39.8402 210.251 39.909C210.136 40.2552 210.098 40.5689 210.138 40.849C210.178 41.1292 210.305 41.3318 210.518 41.4556C211.122 41.8203 211.954 41.4516 213.011 40.3489C213.1 40.2604 213.204 40.2338 213.325 40.2691C213.445 40.3044 213.513 40.3842 213.531 40.5087C213.575 40.838 213.708 41.1269 213.931 41.3757C214.455 41.936 215.105 42.2029 215.878 42.1762H215.904C216.598 42.1762 217.375 41.9916 218.238 41.6229C219.1 41.2536 219.871 40.8224 220.551 40.3287C221.231 39.8355 221.811 39.3401 222.29 38.8417C222.352 38.7705 222.384 38.686 222.384 38.5882C222.384 38.4904 222.348 38.4082 222.277 38.3416C222.206 38.2745 222.122 38.2438 222.024 38.2478Z" fill="#649C9F"/>
<path d="M277.932 37.8547C277.852 37.4368 277.977 37.0854 278.305 36.8012C278.216 37.1659 278.092 37.5166 277.932 37.8547ZM268.741 38.0949C269.119 37.8726 269.451 37.7702 269.735 37.7881C269.815 37.7968 269.873 37.817 269.908 37.8483C269.944 37.879 269.966 37.9438 269.975 38.0416C269.993 38.1927 269.864 38.3617 269.588 38.5481C269.526 38.584 269.451 38.628 269.362 38.6818C268.784 38.9753 268.309 39.135 267.935 39.1616C267.722 39.1796 267.673 39.1084 267.788 38.9486C268.046 38.6013 268.364 38.3171 268.741 38.0949ZM259.531 35.4787C259.553 35.3056 259.587 35.1962 259.631 35.1522C259.738 35.0723 259.853 35.0631 259.978 35.1256C260.031 35.1875 259.998 35.3831 259.878 35.7119C259.758 36.0413 259.658 36.2056 259.578 36.2056C259.542 36.2056 259.52 36.1281 259.511 35.9724C259.502 35.8167 259.509 35.6523 259.531 35.4787ZM258.817 38.4682C258.79 38.4948 258.744 38.5394 258.677 38.6013C258.611 38.6639 258.49 38.775 258.317 38.9353C258.144 39.0951 257.961 39.2531 257.77 39.4088C257.579 39.5645 257.348 39.7399 257.077 39.9355C256.806 40.1311 256.537 40.3088 256.271 40.4686C256.004 40.6289 255.712 40.7806 255.397 40.9224C255.082 41.0648 254.779 41.1759 254.49 41.2558C254.202 41.3356 253.906 41.3762 253.604 41.3762C253.302 41.3762 253.022 41.327 252.764 41.2291C251.866 40.8824 251.306 39.9222 251.084 38.3484C251.529 37.2278 251.862 36.3434 252.084 35.694C252.111 35.632 252.139 35.5921 252.171 35.5742C252.202 35.5562 252.258 35.5475 252.338 35.5475C252.338 35.5475 255.565 35.3212 258.847 35.1047C258.808 35.463 258.768 35.8763 258.774 35.9209C258.716 36.8585 258.752 37.6891 258.861 38.4352C258.847 38.4468 258.83 38.4537 258.817 38.4682ZM250.978 36.6808C250.942 36.6808 250.92 36.6033 250.911 36.4476C250.902 36.2925 250.909 36.1275 250.931 35.9544C250.953 35.7808 250.986 35.672 251.031 35.6274C251.138 35.5475 251.253 35.5388 251.378 35.6008C251.431 35.6627 251.397 35.8584 251.278 36.1877C251.158 36.5165 251.058 36.6808 250.978 36.6808ZM251.151 34.6006C251.219 34.1665 251.307 33.6733 251.389 33.4285C251.644 32.6674 251.886 31.8489 252.215 31.9213C252.53 31.9907 252.506 32.3016 251.698 34.6672C251.648 34.8674 251.521 34.9259 251.244 34.9074C251.146 34.9004 251.115 34.8049 251.151 34.6006ZM259.736 34.0571C259.822 33.5124 260.229 31.9166 260.677 31.9213C260.955 31.9242 260.938 32.1771 260.283 34.1237C260.26 34.244 260.114 34.4513 259.787 34.3505C259.725 34.321 259.706 34.2261 259.736 34.0571ZM289.045 38.588C288.978 38.5174 288.896 38.4815 288.798 38.4815C288.7 38.4815 288.616 38.5128 288.544 38.5747C288.109 39.0019 287.593 39.3822 286.998 39.7156C286.403 40.0489 285.816 40.3048 285.238 40.4825C284.66 40.6602 284.1 40.7939 283.558 40.8824C283.016 40.9716 282.545 41.0069 282.145 40.9889C281.745 40.9716 281.456 40.9091 281.278 40.8026C280.985 40.6335 280.836 40.4269 280.832 40.1821C280.827 39.9378 280.936 39.6108 281.159 39.2021C281.247 39.0239 281.312 38.8838 281.352 38.7819C281.392 38.6795 281.407 38.5573 281.398 38.415C281.39 38.2726 281.327 38.1574 281.212 38.0683C281.096 37.9791 280.971 37.9328 280.838 37.9282C280.705 37.9236 280.598 37.9369 280.518 37.9681C280.439 37.9994 280.332 38.0549 280.199 38.1348C279.745 38.393 279.261 38.5215 278.745 38.5215C278.683 38.5215 278.63 38.4838 278.585 38.408C278.541 38.3328 278.528 38.2726 278.545 38.228C279.034 37.1259 279.132 36.4366 278.839 36.1611C278.625 35.9562 278.332 35.9654 277.959 36.1877C277.648 36.4192 277.431 36.7121 277.306 37.0681C277.181 37.4235 277.173 37.7835 277.279 38.1481C277.332 38.3519 277.425 38.533 277.557 38.6928C277.499 38.7379 277.431 38.79 277.341 38.8549C277.194 38.9619 276.919 39.1419 276.515 39.3955C276.11 39.6484 275.692 39.8886 275.261 40.1155C274.83 40.3424 274.313 40.567 273.708 40.7892C273.103 41.0115 272.513 41.1759 271.935 41.2824C271.357 41.3895 270.735 41.4225 270.069 41.3825C269.402 41.3426 268.78 41.2025 268.202 40.9623C267.552 40.7047 267.26 40.3488 267.322 39.8956C267.313 39.851 267.326 39.8151 267.362 39.7885C267.397 39.7619 267.437 39.7532 267.482 39.7619C268.379 39.8151 269.206 39.6067 269.961 39.135C270.486 38.7883 270.726 38.4016 270.681 37.9751C270.664 37.7262 270.568 37.5166 270.394 37.3476C270.222 37.1792 270.014 37.0947 269.775 37.0947C269.419 37.0768 269.017 37.1838 268.568 37.4142C268.119 37.6457 267.712 37.9658 267.348 38.375C267.313 38.415 267.285 38.4549 267.252 38.4948C267.224 38.522 267.193 38.5521 267.139 38.6013C267.073 38.6639 266.953 38.775 266.779 38.9353C266.606 39.0951 266.424 39.2531 266.233 39.4088C266.041 39.5645 265.81 39.7399 265.54 39.9355C265.269 40.1311 264.999 40.3088 264.733 40.4686C264.467 40.6289 264.175 40.7806 263.86 40.9224C263.544 41.0648 263.242 41.1759 262.953 41.2558C262.664 41.3356 262.368 41.3762 262.066 41.3762C261.764 41.3762 261.484 41.327 261.226 41.2291C260.329 40.8824 259.768 39.9222 259.547 38.3484C259.991 37.2278 260.324 36.3434 260.546 35.694C260.556 35.672 260.664 35.3791 260.806 34.9774C263.077 34.8327 265.05 34.7169 265.567 34.7169C265.665 34.7169 265.747 34.6816 265.814 34.6104C265.88 34.5392 265.914 34.457 265.914 34.3639C265.914 34.2701 265.88 34.1879 265.814 34.1167C265.747 34.0455 265.665 34.0102 265.567 34.0102C265.23 34.0102 263.265 34.1115 261.004 34.2556C261.154 33.7932 261.315 33.2549 261.388 32.8954C261.549 32.1082 261.714 31.0085 260.571 31.1677C260.338 31.2001 260.115 31.3899 259.897 31.7008C259.68 32.0127 259.307 32.9354 259.178 33.4603C259.064 33.9222 259.046 33.8898 258.947 34.405C255.737 34.6133 252.577 34.8269 252.577 34.8269C252.551 34.8269 252.529 34.8205 252.511 34.8072C252.493 34.7939 252.478 34.7673 252.464 34.7274C252.45 34.6868 252.458 34.6319 252.484 34.5601C252.551 34.3772 252.716 33.9888 252.876 33.2016C253.036 32.4144 253.034 31.9873 252.948 31.7008C252.818 31.2666 252.464 31.1052 252.108 31.1677C251.877 31.2122 251.653 31.3899 251.435 31.7008C251.217 32.0127 250.818 33.0025 250.689 33.5269C250.56 34.0519 250.524 34.0623 250.444 34.6139C250.409 34.8449 250.311 34.9693 250.151 34.9872C249.76 35.0139 247.214 35.1973 247.081 35.2055C246.948 35.2147 246.877 35.2188 246.868 35.2188C246.771 35.2188 246.69 35.2547 246.628 35.3258C246.566 35.397 246.534 35.4815 246.534 35.5794C246.534 35.6772 246.57 35.7594 246.641 35.8259C246.713 35.8925 246.797 35.922 246.895 35.9128H246.922C246.93 35.9128 246.997 35.9081 247.121 35.8994C247.246 35.8908 249.658 35.7206 250.031 35.694C250.102 35.6853 250.164 35.7027 250.218 35.7472C250.271 35.7918 250.302 35.8497 250.311 35.9209C250.243 37.0218 250.299 37.9814 250.461 38.8184C250.455 38.8224 250.449 38.8242 250.444 38.8282C250.391 38.8821 250.308 38.955 250.197 39.0488C250.086 39.1419 249.879 39.3 249.577 39.5216C249.275 39.7445 248.969 39.9534 248.657 40.1491C248.347 40.3447 247.977 40.538 247.551 40.729C247.124 40.9201 246.718 41.0601 246.331 41.1493C245.944 41.2384 245.54 41.2604 245.118 41.2158C244.696 41.1713 244.316 41.0381 243.978 40.8159C243.8 40.7001 243.636 40.5421 243.485 40.3424C243.333 40.1421 243.217 39.9534 243.138 39.7752C243.058 39.5975 242.987 39.4088 242.925 39.2085C242.862 39.0088 242.825 38.8705 242.811 38.7952C242.798 38.7194 242.786 38.6598 242.778 38.6147C242.751 38.4462 242.653 38.3484 242.484 38.3218C242.307 38.2951 242.182 38.3617 242.111 38.5215C241.765 39.2774 241.374 39.9801 240.938 40.6289C240.502 41.2783 240.209 41.5539 240.058 41.456C240.031 41.456 239.991 41.4115 239.938 41.3223C239.778 40.8604 239.822 40.4153 240.071 39.9888C240.32 39.4643 240.667 39.0221 241.111 38.6615C241.556 38.3015 242.058 38.0549 242.618 37.9212C242.751 37.8859 242.838 37.8037 242.878 37.6747C242.918 37.5462 242.891 37.4327 242.798 37.3343C242.705 37.2371 242.591 37.2058 242.458 37.2411C241.791 37.4009 241.194 37.6967 240.665 38.1285C240.397 38.3467 240.16 38.588 239.953 38.8531C239.918 38.8925 239.891 38.9243 239.843 38.9753C239.758 39.0644 239.596 39.2241 239.356 39.4551C239.116 39.6866 238.869 39.9002 238.616 40.0958C238.363 40.2915 238.054 40.4888 237.69 40.6891C237.325 40.8888 236.967 41.0358 236.616 41.129C236.265 41.2228 235.883 41.2517 235.47 41.2158C235.056 41.1805 234.663 41.0514 234.289 40.8292C233.925 40.5803 233.663 40.2469 233.503 39.8284C233.423 39.66 233.354 39.5286 233.297 39.4354C233.239 39.3416 233.152 39.2328 233.036 39.1084C232.92 38.9839 232.785 38.9017 232.63 38.8618C232.474 38.8219 232.299 38.8149 232.103 38.8415C231.889 38.8774 231.627 39.0152 231.317 39.2554C231.005 39.495 230.699 39.7844 230.397 40.1225C230.37 40.1578 230.332 40.1688 230.283 40.1554C230.234 40.1421 230.205 40.1132 230.197 40.0686C230.152 39.7665 230.035 39.495 229.843 39.2554C229.652 39.0152 229.418 38.8329 229.144 38.7084C228.983 38.6731 228.841 38.6552 228.717 38.6552C228.592 38.6552 228.419 38.6818 228.197 38.735C227.975 38.7883 227.712 38.9197 227.41 39.1286C227.108 39.3376 226.775 39.62 226.41 39.9754C226.374 40.02 226.337 40.0333 226.297 40.0154C226.257 39.9974 226.241 39.9668 226.25 39.9222C226.25 39.8863 226.335 39.5043 226.503 38.775C226.53 38.6864 226.517 38.5996 226.464 38.5151C226.41 38.4306 226.337 38.3773 226.244 38.3548C226.151 38.3328 226.061 38.3484 225.977 38.4016C225.893 38.4549 225.842 38.5307 225.824 38.628L225.184 41.4427C225.139 41.6204 225.202 41.7495 225.37 41.8294C225.539 41.9092 225.681 41.878 225.797 41.7356C226.215 41.2025 226.601 40.7603 226.957 40.409C227.312 40.0576 227.61 39.8087 227.85 39.6617C228.09 39.5153 228.284 39.4198 228.43 39.3752C228.577 39.3312 228.708 39.3179 228.823 39.3353C229.028 39.3619 229.217 39.5575 229.39 39.9222C229.563 40.2868 229.636 40.7354 229.61 41.2691C229.601 41.456 229.683 41.5759 229.856 41.6291C230.03 41.6824 230.165 41.6291 230.263 41.4693C230.521 41.0335 230.865 40.6087 231.296 40.1954C231.727 39.7821 232.032 39.5616 232.21 39.535C232.361 39.5083 232.477 39.5332 232.557 39.6085C232.636 39.6843 232.743 39.8643 232.877 40.1491C233.089 40.6914 233.445 41.1226 233.943 41.4427C234.512 41.7808 235.13 41.9492 235.796 41.9492C236.267 41.9492 236.754 41.856 237.256 41.669C237.758 41.4827 238.187 41.2691 238.543 41.0295C238.75 40.8888 238.954 40.7343 239.156 40.5728C239.121 40.9241 239.167 41.2807 239.311 41.6424C239.374 41.7941 239.473 41.9162 239.612 42.0094C239.749 42.1031 239.898 42.1541 240.058 42.1628H240.071C240.382 42.1541 240.722 41.9851 241.091 41.6557C241.46 41.327 241.8 40.9224 242.111 40.442C242.182 40.3355 242.282 40.2868 242.412 40.2955C242.54 40.3048 242.635 40.3621 242.698 40.4686C242.92 40.8512 243.217 41.1626 243.591 41.4028C243.991 41.6609 244.431 41.8224 244.911 41.8896C245.391 41.9561 245.849 41.9492 246.284 41.8693C246.72 41.7894 247.173 41.6494 247.644 41.4491C248.115 41.2494 248.524 41.0468 248.871 40.8425C249.217 40.6382 249.56 40.4113 249.898 40.1624C250.235 39.9135 250.468 39.7335 250.597 39.6218C250.617 39.6044 250.633 39.5911 250.652 39.5743C250.682 39.671 250.704 39.7769 250.738 39.8689C251.12 40.9091 251.711 41.5805 252.511 41.8826C252.866 42.0163 253.226 42.0829 253.591 42.0829C254.088 42.0829 254.624 41.9741 255.198 41.7559C255.77 41.5382 256.273 41.2957 256.704 41.0295C257.135 40.762 257.57 40.4553 258.011 40.1091C258.45 39.7619 258.752 39.5107 258.917 39.355C258.955 39.3185 258.987 39.2878 259.021 39.2537C259.076 39.4649 259.13 39.6768 259.2 39.8689C259.582 40.9091 260.173 41.5805 260.973 41.8826C261.329 42.0163 261.689 42.0829 262.053 42.0829C262.551 42.0829 263.086 41.9741 263.66 41.7559C264.233 41.5382 264.735 41.2957 265.166 41.0295C265.597 40.762 266.033 40.4553 266.473 40.1091C266.524 40.0686 266.566 40.0345 266.613 39.9969C266.612 40.1057 266.625 40.2266 266.662 40.369C266.701 40.5247 266.766 40.6712 266.855 40.8089C266.944 40.9467 267.079 41.0891 267.261 41.2361C267.444 41.3825 267.669 41.5093 267.935 41.6158C268.77 41.9538 269.642 42.1182 270.548 42.1095C271.259 42.1095 272.006 42.0071 272.788 41.8027C273.57 41.5984 274.239 41.3715 274.795 41.1226C275.35 40.8738 275.908 40.582 276.468 40.2492C277.028 39.9152 277.405 39.6773 277.601 39.535C277.796 39.3932 277.961 39.2687 278.094 39.1616C278.114 39.1466 278.125 39.1269 278.14 39.1095C278.339 39.1807 278.54 39.2224 278.745 39.2155C279.305 39.2421 279.829 39.1217 280.318 38.8549C280.381 38.8196 280.43 38.8016 280.465 38.8016C280.536 38.8103 280.559 38.8415 280.532 38.8954C280.461 39.0372 280.406 39.1553 280.365 39.2485C280.326 39.3416 280.274 39.4753 280.212 39.6484C280.15 39.8221 280.121 39.9754 280.126 40.1091C280.13 40.2423 280.15 40.3916 280.185 40.5554C280.22 40.7204 280.301 40.8738 280.425 41.0156C280.55 41.1579 280.713 41.287 280.918 41.4028C281.39 41.6158 281.879 41.709 282.385 41.6824C283.434 41.6824 284.589 41.4584 285.851 41.0092C287.114 40.5606 288.176 39.9176 289.038 39.0818C289.109 39.0106 289.144 38.9284 289.144 38.8352C289.144 38.7414 289.111 38.6598 289.045 38.588Z" fill="#649C9F"/>
</g>
</g>
<defs>
<clipPath id="clip0_136_516">
<rect width="289" height="56" fill="white"/>
</clipPath>
</defs>
</svg>
