<svg width="113" height="112" viewBox="0 0 113 112" fill="none" xmlns="http://www.w3.org/2000/svg">
<rect x="0.5" width="112" height="112" rx="24" fill="#649da0" fill-opacity="0.08"/>
<path opacity="0.4" d="M46.5029 40.0052V71.9719C46.5029 82.6719 53.1696 89.3385 63.8363 89.3385H72.4696C83.1363 89.3385 89.8029 82.6719 89.8029 72.0052V40.0052C89.8363 29.3385 83.1696 22.6719 72.5029 22.6719H63.8363C53.1696 22.6719 46.5029 29.3385 46.5029 40.0052Z" fill="#649da0"/>
<path d="M35.0635 43.0547L23.8969 54.2214C22.9302 55.188 22.9302 56.788 23.8969 57.7547L35.0635 68.9214C36.0302 69.888 37.6302 69.888 38.5969 68.9214C39.5635 67.9547 39.5635 66.3547 38.5969 65.388L31.6969 58.488H67.3302C68.6969 58.488 69.8302 57.3547 69.8302 55.988C69.8302 54.6214 68.6969 53.488 67.3302 53.488H31.6969L38.5969 46.588C39.0969 46.088 39.3302 45.4547 39.3302 44.8214C39.3302 44.188 39.0969 43.5214 38.5969 43.0547C37.6302 42.0547 36.0635 42.0547 35.0635 43.0547Z" fill="#649da0"/>
</svg>
